# Blender v2.78 (sub 0) OBJ File: 'RobotFactory.blend'
# www.blender.org
mtllib Box-1.mtl
o Cube.099_Cube.106
v -0.797782 0.003792 0.774516
v -0.797782 1.569174 0.774516
v -0.797782 0.003792 -0.790866
v -0.797782 1.569174 -0.790866
v 0.767599 0.003792 0.774516
v 0.767599 1.569174 0.774516
v 0.767599 0.003792 -0.790866
v 0.767599 1.569174 -0.790866
v -0.600414 0.201161 0.774516
v -0.600414 1.371805 0.774516
v -0.600414 1.371805 -0.790866
v -0.600414 0.201161 -0.790866
v 0.570231 0.201161 -0.790866
v 0.570231 1.371805 -0.790866
v 0.570231 1.371805 0.774516
v 0.570231 0.201161 0.774516
v -0.797782 0.181605 -0.613053
v -0.797782 0.181605 0.596703
v -0.797782 1.391361 0.596703
v -0.797782 1.391361 -0.613053
v 0.767599 1.391361 -0.613053
v 0.767599 0.181605 -0.613053
v 0.767599 0.181605 0.596703
v 0.767599 1.391361 0.596703
v -0.591410 0.003792 -0.584493
v -0.591410 0.003792 0.568143
v -0.591410 1.569174 0.568143
v -0.591410 1.569174 -0.584493
v 0.561227 0.003792 -0.584493
v 0.561227 1.569174 -0.584493
v 0.561227 0.003792 0.568143
v 0.561227 1.569174 0.568143
v -0.591410 1.513242 0.568143
v -0.591410 1.513242 -0.584493
v 0.561227 1.513242 -0.584493
v 0.561227 1.513242 0.568143
v 0.703665 1.391361 -0.613053
v 0.703665 0.181605 -0.613053
v 0.703665 0.181605 0.596703
v 0.703665 1.391361 0.596703
v -0.600414 1.371805 -0.714745
v -0.600414 0.201161 -0.714745
v 0.570231 0.201161 -0.714745
v 0.570231 1.371805 -0.714745
v -0.720940 0.181605 -0.613053
v -0.720940 0.181605 0.596703
v -0.720940 1.391361 0.596703
v -0.720940 1.391361 -0.613053
v -0.600414 0.201161 0.707443
v -0.600414 1.371805 0.707443
v 0.570231 1.371805 0.707443
v 0.570231 0.201161 0.707443
v -0.591410 0.065154 -0.584493
v -0.591410 0.065154 0.568143
v 0.561227 0.065154 -0.584493
v 0.561227 0.065154 0.568143
vt 0.0867 0.9140
vt 0.0867 0.5419
vt 0.1312 0.5867
vt 0.1312 0.8705
vt 0.0853 0.9172
vt 0.0853 0.5410
vt 0.1327 0.5884
vt 0.1327 0.8698
vt 0.4592 0.5419
vt 0.4592 0.9140
vt 0.4150 0.8705
vt 0.4150 0.5867
vt 0.4627 0.5399
vt 0.4627 0.9181
vt 0.4132 0.8668
vt 0.4132 0.5871
vt 0.4596 0.5398
vt 0.4596 0.9163
vt 0.4100 0.8666
vt 0.4100 0.5894
vt 0.4633 0.9189
vt 0.0826 0.9189
vt 0.1328 0.8688
vt 0.4131 0.8688
vt 0.3944 0.6075
vt 0.1582 0.6076
vt 0.1368 0.5880
vt 0.4123 0.5884
vt 0.3895 0.8470
vt 0.3925 0.6121
vt 0.4078 0.5957
vt 0.4078 0.8638
vt 0.4619 0.5410
vt 0.4144 0.5884
vt 0.0846 0.9181
vt 0.0846 0.5399
vt 0.1349 0.5871
vt 0.1349 0.8668
vt 0.4619 0.9172
vt 0.4144 0.8698
vt 0.1553 0.8449
vt 0.3946 0.8474
vt 0.4134 0.8647
vt 0.1363 0.8658
vt 0.3929 0.6135
vt 0.1568 0.6108
vt 0.1417 0.5967
vt 0.4085 0.5967
vt 0.4610 0.9158
vt 0.0843 0.9158
vt 0.1330 0.8691
vt 0.4162 0.8691
vt 0.4610 0.5395
vt 0.4162 0.5862
vt 0.0843 0.5395
vt 0.1330 0.5862
vt 0.1568 0.6076
vt 0.1540 0.8476
vt 0.1395 0.8631
vt 0.1395 0.5917
vt 0.3946 0.8471
vt 0.3956 0.6134
vt 0.4099 0.5979
vt 0.4085 0.8601
vt 0.0826 0.5386
vt 0.4633 0.5386
vt 0.4131 0.5887
vt 0.1328 0.5887
vt 0.0828 0.9163
vt 0.0828 0.5398
vt 0.1324 0.5894
vt 0.1324 0.8666
vt 0.3913 0.6138
vt 0.3913 0.8458
vt 0.1590 0.8458
vt 0.1590 0.6138
vt 0.1578 0.6108
vt 0.1439 0.5979
vt 0.1568 0.8446
vt 0.1425 0.8601
vt 0.3905 0.6161
vt 0.3905 0.8446
vt 0.1617 0.8446
vt 0.1617 0.6161
vt 0.3922 0.8456
vt 0.4073 0.8597
vt 0.1560 0.8429
vt 0.1405 0.8597
vt 0.3894 0.6148
vt 0.3894 0.8423
vt 0.1617 0.8423
vt 0.1617 0.6148
vt 0.1547 0.8474
vt 0.3909 0.8473
vt 0.4123 0.8669
vt 0.1368 0.8666
vt 0.1578 0.8462
vt 0.1578 0.6120
vt 0.3922 0.6120
vt 0.3922 0.8462
vt 0.3929 0.6121
vt 0.1535 0.6097
vt 0.1347 0.5924
vt 0.4118 0.5913
vt 0.3890 0.6136
vt 0.3890 0.8423
vt 0.1601 0.8423
vt 0.1601 0.6136
vt 0.1581 0.8460
vt 0.1428 0.8624
vt 0.1611 0.6112
vt 0.1428 0.5943
vt 0.3903 0.6155
vt 0.3903 0.8451
vt 0.1604 0.8451
vt 0.1604 0.6155
vt 0.3932 0.6094
vt 0.4077 0.5939
vt 0.3903 0.8494
vt 0.4077 0.8653
vn -1.0000 0.0000 0.0000
vn 0.0000 0.0000 1.0000
vn 0.0000 0.0000 -1.0000
vn 0.0000 1.0000 -0.0000
vn 0.0000 -1.0000 0.0000
vn 1.0000 0.0000 0.0000
g Cube.099_Cube.106_Boxes
usemtl Boxes
s off
f 1/1/1 2/2/1 19/3/1 18/4/1
f 2/5/2 1/6/2 9/7/2 10/8/2
f 4/9/1 3/10/1 17/11/1 20/12/1
f 3/13/3 4/14/3 11/15/3 12/16/3
f 6/17/4 8/18/4 30/19/4 32/20/4
f 5/21/5 1/22/5 26/23/5 31/24/5
f 13/25/4 12/26/4 42/27/4 43/28/4
f 10/29/6 9/30/6 49/31/6 50/32/6
f 1/6/2 5/33/2 16/34/2 9/7/2
f 8/35/3 7/36/3 13/37/3 14/38/3
f 7/36/3 3/13/3 12/16/3 13/37/3
f 6/39/2 2/5/2 10/8/2 15/40/2
f 5/33/2 6/39/2 15/40/2 16/34/2
f 4/14/3 8/35/3 14/38/3 11/15/3
f 19/41/5 20/42/5 48/43/5 47/44/5
f 21/45/5 24/46/5 40/47/5 37/48/5
f 8/49/6 6/50/6 24/51/6 21/52/6
f 7/53/6 8/49/6 21/52/6 22/54/6
f 2/2/1 4/9/1 20/12/1 19/3/1
f 3/10/1 1/1/1 18/4/1 17/11/1
f 6/50/6 5/55/6 23/56/6 24/51/6
f 5/55/6 7/53/6 22/54/6 23/56/6
f 31/57/3 26/58/3 54/59/3 56/60/3
f 30/61/2 28/62/2 34/63/2 35/64/2
f 3/65/5 7/66/5 29/67/5 25/68/5
f 4/69/4 2/70/4 27/71/4 28/72/4
f 2/70/4 6/17/4 32/20/4 27/71/4
f 1/22/5 3/65/5 25/68/5 26/23/5
f 7/66/5 5/21/5 31/24/5 29/67/5
f 8/18/4 4/69/4 28/72/4 30/19/4
f 35/73/4 34/74/4 33/75/4 36/76/4
f 28/62/6 27/77/6 33/78/6 34/63/6
f 27/77/3 32/79/3 36/80/3 33/78/3
f 32/79/1 30/61/1 35/64/1 36/80/1
f 38/81/6 37/82/6 40/83/6 39/84/6
f 22/85/2 21/45/2 37/48/2 38/86/2
f 24/46/3 23/87/3 39/88/3 40/47/3
f 23/87/4 22/85/4 38/86/4 39/88/4
f 42/89/3 41/90/3 44/91/3 43/92/3
f 11/93/5 14/94/5 44/95/5 41/96/5
f 12/26/6 11/93/6 41/96/6 42/27/6
f 14/94/1 13/25/1 43/28/1 44/95/1
f 46/97/1 47/98/1 48/99/1 45/100/1
f 17/101/4 18/102/4 46/103/4 45/104/4
f 20/42/2 17/101/2 45/104/2 48/43/2
f 18/102/3 19/41/3 47/44/3 46/103/3
f 52/105/2 51/106/2 50/107/2 49/108/2
f 15/109/5 10/29/5 50/32/5 51/110/5
f 16/111/1 15/109/1 51/110/1 52/112/1
f 9/30/4 16/111/4 52/112/4 49/31/4
f 53/113/5 55/114/5 56/115/5 54/116/5
f 29/117/1 31/57/1 56/60/1 55/118/1
f 25/119/2 29/117/2 55/118/2 53/120/2
f 26/58/6 25/119/6 53/120/6 54/59/6
