# Blender v2.78 (sub 0) OBJ File: 'RobotFactory.blend'
# www.blender.org
mtllib Bucket and Mop.mtl
o Cube.180_Cube.252
v -0.015489 0.317509 1.240019
v 0.135643 0.317509 1.085286
v 0.286775 0.317509 1.240019
v 0.135643 0.317509 1.394751
v 0.135643 0.150038 1.240019
v 0.135643 0.484980 1.240019
v 0.022294 0.191905 1.240019
v 0.022294 0.317509 1.356068
v 0.022294 0.443112 1.240019
v 0.022294 0.317509 1.123969
v 0.135643 0.191905 1.123969
v 0.135643 0.443112 1.123969
v 0.248992 0.317509 1.123969
v 0.248992 0.191905 1.240019
v 0.248992 0.443112 1.240019
v 0.248992 0.317509 1.356068
v 0.135643 0.191905 1.356068
v 0.135643 0.443112 1.356068
v 0.051681 0.224469 1.325981
v 0.051681 0.410548 1.325981
v 0.051681 0.224469 1.154056
v 0.051681 0.410548 1.154056
v 0.219605 0.224469 1.325981
v 0.219605 0.410548 1.325981
v 0.219605 0.224469 1.154056
v 0.219605 0.410548 1.154056
vn -1.0000 0.0000 0.0000
vn -0.7258 -0.6879 0.0000
vn -0.5979 -0.5467 0.5861
vn -0.7115 0.0000 0.7026
vn -0.5979 0.5467 0.5861
vn -0.7258 0.6879 0.0000
vn -0.5979 0.5467 -0.5861
vn -0.7115 0.0000 -0.7026
vn -0.5979 -0.5467 -0.5861
vn 0.0000 0.0000 -1.0000
vn 0.0000 -0.6925 -0.7214
vn 0.0000 0.6925 -0.7214
vn 0.5979 0.5467 -0.5861
vn 0.7115 0.0000 -0.7026
vn 0.5979 -0.5467 -0.5861
vn 1.0000 0.0000 0.0000
vn 0.7258 -0.6879 0.0000
vn 0.7258 0.6879 0.0000
vn 0.5979 0.5467 0.5861
vn 0.7115 0.0000 0.7026
vn 0.5979 -0.5467 0.5861
vn 0.0000 0.0000 1.0000
vn 0.0000 -0.6925 0.7214
vn 0.0000 0.6925 0.7214
vn 0.0000 -1.0000 0.0000
vn 0.0000 1.0000 0.0000
g Cube.180_Cube.252_PinkPots
usemtl PinkPots
s 1
f 1//1 7//2 19//3 8//4
f 1//1 8//4 20//5 9//6
f 1//1 9//6 22//7 10//8
f 1//1 10//8 21//9 7//2
f 2//10 11//11 21//9 10//8
f 2//10 10//8 22//7 12//12
f 2//10 12//12 26//13 13//14
f 2//10 13//14 25//15 11//11
f 3//16 14//17 25//15 13//14
f 3//16 13//14 26//13 15//18
f 3//16 15//18 24//19 16//20
f 3//16 16//20 23//21 14//17
f 4//22 17//23 23//21 16//20
f 4//22 16//20 24//19 18//24
f 4//22 18//24 20//5 8//4
f 4//22 8//4 19//3 17//23
f 5//25 7//2 21//9 11//11
f 5//25 11//11 25//15 14//17
f 5//25 14//17 23//21 17//23
f 5//25 17//23 19//3 7//2
f 6//26 15//18 26//13 12//12
f 6//26 12//12 22//7 9//6
f 6//26 9//6 20//5 18//24
f 6//26 18//24 24//19 15//18
o Cube.179_Cube.251
v 0.067455 0.447624 1.309831
v 0.067455 3.290850 1.309831
v 0.067455 0.447624 1.170206
v 0.067455 3.290850 1.170206
v 0.203831 0.447624 1.309831
v 0.203831 3.290850 1.309831
v 0.203831 0.447624 1.170206
v 0.203831 3.290850 1.170206
vn -1.0000 0.0000 0.0000
vn 0.0000 0.0000 -1.0000
vn 1.0000 0.0000 0.0000
vn 0.0000 0.0000 1.0000
vn 0.0000 -1.0000 0.0000
vn 0.0000 1.0000 0.0000
g Cube.179_Cube.251_Boxes
usemtl Boxes
s off
f 27//27 28//27 30//27 29//27
f 29//28 30//28 34//28 33//28
f 33//29 34//29 32//29 31//29
f 31//30 32//30 28//30 27//30
f 29//31 33//31 31//31 27//31
f 34//32 30//32 28//32 32//32
o Cube.178_Cube.250
v -0.224436 -0.036295 1.927030
v -0.224436 -0.011053 2.017956
v -0.332748 -0.011053 1.927030
v -0.224436 0.085329 2.017956
v -0.224436 0.110571 1.927030
v -0.332748 0.085329 1.927030
v -0.224436 -0.036295 0.551008
v -0.332748 -0.011053 0.551008
v -0.224436 -0.011053 0.460082
v -0.224436 0.110571 0.551008
v -0.224436 0.085329 0.460082
v -0.332748 0.085329 0.551008
v 0.495722 -0.036295 1.927030
v 0.604034 -0.011053 1.927030
v 0.495722 -0.011053 2.017956
v 0.495722 0.110571 1.927030
v 0.495722 0.085329 2.017956
v 0.604034 0.085329 1.927030
v 0.495722 -0.036295 0.551008
v 0.495722 -0.011053 0.460082
v 0.604034 -0.011053 0.551008
v 0.495722 0.110571 0.551008
v 0.604034 0.085329 0.551008
v 0.495722 0.085329 0.460082
vn 0.2785 -0.5448 0.7909
vn 0.2785 0.5448 0.7909
vn -0.2785 0.5448 0.7909
vn -0.2785 -0.5448 0.7909
vn 0.7638 -0.5463 -0.3436
vn 0.7638 0.5463 -0.3436
vn 0.7638 0.5463 0.3436
vn 0.7638 -0.5463 0.3436
vn 0.1122 0.9847 -0.1329
vn -0.1122 0.9847 -0.1329
vn -0.1122 0.9847 0.1329
vn 0.1122 0.9847 0.1329
vn -0.7638 -0.5463 0.3436
vn -0.7638 0.5463 0.3436
vn -0.7638 0.5463 -0.3436
vn -0.7638 -0.5463 -0.3436
vn -0.2785 -0.5448 -0.7909
vn -0.2785 0.5448 -0.7909
vn 0.2785 0.5448 -0.7909
vn 0.2785 -0.5448 -0.7909
vn -0.1122 -0.9847 0.1329
vn -0.1122 -0.9847 -0.1329
vn 0.1122 -0.9847 0.1329
vn 0.1122 -0.9847 -0.1329
g Cube.178_Cube.250_None
usemtl None
s 1
f 49//33 51//34 38//35 36//36
f 55//37 57//38 52//39 48//40
f 56//41 44//42 39//43 50//44
f 37//45 40//46 46//47 42//48
f 43//49 45//50 58//51 54//52
f 35//53 36//36 37//45
f 38//35 39//43 40//46
f 41//54 42//48 43//49
f 44//42 45//50 46//47
f 47//55 48//40 49//33
f 50//44 51//34 52//39
f 53//56 54//52 55//37
f 56//41 57//38 58//51
f 41//54 35//53 37//45 42//48
f 36//36 38//35 40//46 37//45
f 39//43 44//42 46//47 40//46
f 45//50 43//49 42//48 46//47
f 53//56 41//54 43//49 54//52
f 44//42 56//41 58//51 45//50
f 57//38 55//37 54//52 58//51
f 47//55 53//56 55//37 48//40
f 56//41 50//44 52//39 57//38
f 51//34 49//33 48//40 52//39
f 35//53 47//55 49//33 36//36
f 50//44 39//43 38//35 51//34
f 41//54 53//56 47//55 35//53
o Cube.177_Cube.249
v -0.258475 0.082622 1.961424
v -0.258475 0.130433 1.961424
v -0.258475 0.082622 0.518613
v -0.258475 0.130433 0.518613
v 0.529761 0.082622 1.961424
v 0.529761 0.130433 1.961424
v 0.529761 0.082622 0.518613
v 0.529761 0.130433 0.518613
v 0.320200 0.082622 0.518613
v 0.320200 0.188115 0.518613
v 0.320200 0.082622 1.961424
v 0.320200 0.188115 1.961424
v -0.043175 0.082622 0.518613
v -0.043175 0.188115 1.961424
v -0.043175 0.188115 0.518613
v -0.043175 0.082622 1.961424
v -0.258475 0.082622 0.838471
v -0.258475 0.130433 0.838471
v 0.529761 0.082622 0.838471
v 0.529761 0.130433 0.838471
v 0.320200 0.188115 0.838471
v 0.320200 0.082622 0.838471
v -0.043175 0.082622 0.838471
v -0.043175 0.188115 0.838471
v -0.258475 0.082622 1.620627
v 0.529761 0.130433 1.620627
v 0.320200 0.188115 1.620627
v 0.320200 0.082622 1.620627
v -0.043175 0.082622 1.620627
v -0.043175 0.188115 1.620627
v -0.258475 0.130433 1.620627
v 0.529761 0.082622 1.620627
vn -1.0000 0.0000 0.0000
vn 0.0000 0.0000 -1.0000
vn 1.0000 0.0000 0.0000
vn 0.0000 0.0000 1.0000
vn 0.0000 -1.0000 0.0000
vn -0.2588 0.9659 0.0000
vn 0.2654 0.9641 0.0000
vn 0.0000 1.0000 0.0000
g Cube.177_Cube.249_Roomba01
usemtl Roomba01
s off
f 75//57 76//57 62//57 61//57
f 67//58 68//58 66//58 65//58
f 90//59 84//59 64//59 63//59
f 74//60 72//60 60//60 59//60
f 86//61 90//61 63//61 69//61
f 88//62 89//62 60//62 72//62
f 84//63 85//63 70//63 64//63
f 87//61 86//61 69//61 74//61
f 63//60 64//60 70//60 69//60
f 71//58 73//58 68//58 67//58
f 61//58 62//58 73//58 71//58
f 83//61 87//61 74//61 59//61
f 85//64 88//64 72//64 70//64
f 69//60 70//60 72//60 74//60
f 68//64 73//64 82//64 79//64
f 61//61 71//61 81//61 75//61
f 71//61 67//61 80//61 81//61
f 66//63 68//63 79//63 78//63
f 73//62 62//62 76//62 82//62
f 67//61 65//61 77//61 80//61
f 65//59 66//59 78//59 77//59
f 59//57 60//57 89//57 83//57
g Cube.177_Cube.249_Boxes
usemtl Boxes
f 83//57 89//57 76//57 75//57
f 79//64 82//64 88//64 85//64
f 75//61 81//61 87//61 83//61
f 81//61 80//61 86//61 87//61
f 78//63 79//63 85//63 84//63
f 82//62 76//62 89//62 88//62
f 80//61 77//61 90//61 86//61
f 77//59 78//59 84//59 90//59
o Cylinder.029_Cylinder.014
v -0.131001 0.592493 -0.524663
v -0.178065 0.659707 -0.542163
v 0.075859 0.737337 -0.510082
v 0.028795 0.804552 -0.525237
v 0.075859 0.737337 0.526677
v 0.028795 0.804552 0.541832
v -0.131001 0.592493 0.531499
v -0.178065 0.659707 0.548999
v -0.347290 0.441045 0.460749
v -0.401522 0.503241 0.475905
v -0.505625 0.330178 0.267458
v -0.565103 0.388700 0.276208
v -0.563580 0.289598 0.003418
v -0.624978 0.346775 0.003418
v -0.505625 0.330178 -0.260623
v -0.565103 0.388700 -0.269372
v -0.347290 0.441045 -0.453914
v -0.401522 0.503241 -0.469069
v -0.178065 0.659707 -0.476797
v 0.028795 0.804552 -0.468628
v 0.028795 0.804552 0.485224
v -0.178065 0.659707 0.483632
v -0.374749 0.521987 0.419296
v -0.518732 0.421169 0.243525
v -0.571434 0.384267 0.003418
v -0.518732 0.421169 -0.236689
v -0.374749 0.521987 -0.412460
v -0.131001 0.592493 -0.462936
v 0.075859 0.737337 -0.456625
v 0.075859 0.737337 0.473220
v -0.131001 0.592493 0.469772
v -0.322008 0.458748 0.407292
v -0.461835 0.360840 0.236595
v -0.513016 0.325003 0.003418
v -0.461836 0.360840 -0.229759
v -0.322009 0.458748 -0.400457
v 0.096118 0.779135 -0.510082
v 0.081319 0.808807 -0.525237
v 0.096118 0.779135 0.526677
v 0.081319 0.808807 0.541832
v 0.081319 0.808807 -0.468628
v 0.081319 0.808807 0.485224
v 0.096118 0.779135 -0.456625
v 0.096118 0.779135 0.473220
vt 0.3913 0.5928
vt 0.4033 0.5957
vt 0.4020 0.5983
vt 0.3914 0.5958
vt 0.4120 0.6043
vt 0.4097 0.6058
vt 0.4152 0.6160
vt 0.4125 0.6161
vt 0.4123 0.6275
vt 0.4100 0.6262
vt 0.4043 0.6360
vt 0.4029 0.6338
vt 0.3954 0.6414
vt 0.3941 0.6395
vt 0.3793 0.5965
vt 0.3810 0.5990
vt 0.3704 0.6032
vt 0.3718 0.6054
vt 0.3718 0.6054
vt 0.3704 0.6032
vt 0.3954 0.6414
vt 0.3941 0.6395
vt 0.3800 0.5979
vt 0.3714 0.6042
vt 0.3947 0.6399
vt 0.4033 0.6347
vt 0.4108 0.6267
vt 0.4134 0.6160
vt 0.4104 0.6051
vt 0.4023 0.5972
vt 0.3911 0.5944
vt 0.4086 0.6256
vt 0.4020 0.6327
vt 0.4110 0.6161
vt 0.4011 0.5995
vt 0.3912 0.5971
vt 0.3815 0.6002
vt 0.3727 0.6062
vt 0.4083 0.6065
vt 0.3936 0.6382
vt 0.3714 0.6042
vt 0.3727 0.6062
vt 0.3947 0.6399
vt 0.3947 0.6399
vt 0.3954 0.6414
vt 0.3704 0.6032
vt 0.3714 0.6042
vt 0.3936 0.6382
vn -0.5736 0.8192 0.0000
vn -0.0808 0.9967 0.0000
vn 0.3713 -0.6486 -0.6643
vn -0.4056 0.4429 -0.7996
vn -0.1836 0.6837 -0.7062
vn 0.6127 -0.5454 -0.5720
vn 0.6019 -0.5504 0.5785
vn -0.1934 0.6736 0.7133
vn -0.4202 0.4377 0.7948
vn 0.3631 -0.6586 0.6591
vn -0.6643 0.2342 0.7098
vn 0.1377 -0.7934 0.5928
vn -0.9100 0.0621 0.4098
vn -0.0675 -0.9372 0.3423
vn -1.0000 -0.0008 0.0000
vn -0.1426 -0.9897 0.0000
vn -0.9100 0.0621 -0.4098
vn -0.0675 -0.9372 -0.3423
vn -0.6643 0.2342 -0.7098
vn 0.1377 -0.7934 -0.5928
vn 0.6964 -0.3850 -0.6056
vn 0.4721 -0.4987 -0.7269
vn -0.2347 0.8354 -0.4969
vn -0.3847 0.6928 -0.6100
vn 0.9061 -0.2382 -0.3497
vn -0.2347 0.8354 0.4969
vn -0.0627 0.9559 0.2869
vn 0.9061 -0.2382 0.3497
vn 0.6964 -0.3850 0.6056
vn -0.3026 0.7403 0.6003
vn -0.3973 0.6891 0.6060
vn 0.4630 -0.5112 0.7241
vn 0.5506 -0.4368 0.7113
vn -0.0627 0.9559 -0.2869
vn 0.0003 1.0000 0.0000
vn 0.9828 -0.1844 0.0000
vn -0.2936 0.7490 -0.5940
vn 0.5635 -0.4309 -0.7048
vn 0.8569 -0.0632 -0.5116
vn 0.7261 0.0761 0.6834
vn 0.4213 0.6056 -0.6751
vn 0.4213 0.6056 0.6751
vn 0.8569 -0.0632 0.5116
vn 0.7261 0.0761 -0.6834
vn 0.3816 0.7624 -0.5225
vn 0.3816 0.7624 0.5225
g Cylinder.029_Cylinder.014_Boxes
usemtl Boxes
s off
f 108/1/65 106/2/65 116/3/65 117/4/65
f 106/2/65 104/5/65 115/6/65 116/3/65
f 104/5/65 102/7/65 114/8/65 115/6/65
f 102/7/65 100/9/65 113/10/65 114/8/65
f 100/9/65 98/11/65 112/12/65 113/10/65
f 98/11/65 96/13/65 111/14/65 112/12/65
f 92/15/65 108/1/65 117/4/65 109/16/65
f 94/17/65 92/15/65 109/16/65 110/18/65
f 94/17/66 110/18/66 131/19/66 128/20/66
f 111/14/66 96/13/66 130/21/66 132/22/66
s 1
f 91/23/67 92/15/68 94/17/69 93/24/70
f 95/25/71 96/13/72 98/11/73 97/26/74
f 97/26/74 98/11/73 100/9/75 99/27/76
f 99/27/76 100/9/75 102/7/77 101/28/78
f 101/28/78 102/7/77 104/5/79 103/29/80
f 103/29/80 104/5/79 106/2/81 105/30/82
f 105/30/82 106/2/81 108/1/83 107/31/84
f 107/31/84 108/1/83 92/15/68 91/23/67
f 97/26/74 99/27/76 122/32/85 121/33/86
f 113/10/87 112/12/88 121/33/86 122/32/85
f 99/27/76 101/28/78 123/34/89 122/32/85
f 117/4/90 116/3/91 125/35/92 126/36/93
f 110/18/94 109/16/95 118/37/96 119/38/97
f 114/8/98 113/10/87 122/32/85 123/34/89
f 109/16/95 117/4/90 126/36/93 118/37/96
f 115/6/99 114/8/98 123/34/89 124/39/100
f 112/12/88 111/14/101 120/40/102 121/33/86
f 116/3/91 115/6/99 124/39/100 125/35/92
f 95/25/71 97/26/74 121/33/86 120/40/102
f 107/31/84 91/23/67 118/37/96 126/36/93
f 91/23/67 93/24/70 119/38/97 118/37/96
f 105/30/82 107/31/84 126/36/93 125/35/92
f 103/29/80 105/30/82 125/35/92 124/39/100
f 101/28/78 103/29/80 124/39/100 123/34/89
f 119/38/97 93/24/70 127/41/103 133/42/104
f 93/24/70 94/17/69 128/20/105 127/41/103
f 130/21/106 129/43/107 134/44/108 132/45/109
f 127/41/103 128/20/105 131/46/110 133/47/104
f 96/13/72 95/25/71 129/43/107 130/21/106
f 120/40/102 111/14/101 132/22/109 134/48/108
f 110/18/94 119/38/97 133/42/104 131/19/110
f 95/25/71 120/40/102 134/48/108 129/43/107
o Cylinder.028_Cylinder.013
v -0.015557 -0.024451 -0.389084
v -0.015557 0.834056 -0.524134
v 0.180694 -0.024451 -0.336498
v 0.248219 0.834056 -0.453456
v 0.324360 -0.024451 -0.192833
v 0.441317 0.834056 -0.260358
v 0.376945 -0.024451 0.003418
v 0.511996 0.834056 0.003418
v 0.324360 -0.024451 0.199669
v 0.441317 0.834056 0.267194
v 0.180694 -0.024451 0.343334
v 0.248220 0.834056 0.460291
v -0.015557 -0.024451 0.395919
v -0.015557 0.834056 0.530970
v -0.211807 -0.024451 0.343334
v -0.279333 0.834056 0.460291
v -0.355473 -0.024451 0.199669
v -0.472430 0.834056 0.267194
v -0.408058 -0.024451 0.003418
v -0.543109 0.834056 0.003418
v -0.355473 -0.024451 -0.192833
v -0.472430 0.834056 -0.260358
v -0.211808 -0.024451 -0.336498
v -0.279333 0.834056 -0.453456
v -0.015557 0.834056 -0.406146
v 0.189225 0.834056 -0.351275
v 0.339136 0.834056 -0.201364
v 0.394007 0.834056 0.003418
v 0.339136 0.834056 0.208200
v 0.189225 0.834056 0.358111
v -0.015557 0.834056 0.412982
v -0.220339 0.834056 0.358111
v -0.370249 0.834056 0.208200
v -0.425121 0.834056 0.003418
v -0.370250 0.834056 -0.201364
v -0.220339 0.834056 -0.351275
v -0.015557 0.476959 -0.362776
v 0.167540 0.476959 -0.313715
v 0.301576 0.476959 -0.179679
v 0.350637 0.476959 0.003418
v 0.301576 0.476959 0.186515
v 0.167540 0.476959 0.320551
v -0.015557 0.476959 0.369611
v -0.198653 0.476959 0.320551
v -0.332689 0.476959 0.186515
v -0.381750 0.476959 0.003418
v -0.332690 0.476959 -0.179679
v -0.198654 0.476959 -0.313715
vt 0.2541 0.7304
vt 0.2562 0.7196
vt 0.2604 0.7220
vt 0.2587 0.7303
vt 0.2853 0.7104
vt 0.2928 0.7185
vt 0.2886 0.7211
vt 0.2828 0.7150
vt 0.2636 0.7111
vt 0.2662 0.7155
vt 0.2950 0.7292
vt 0.2905 0.7294
vt 0.2918 0.7394
vt 0.2880 0.7373
vt 0.2843 0.7466
vt 0.2822 0.7430
vt 0.2746 0.7493
vt 0.2746 0.7452
vt 0.2650 0.7471
vt 0.2670 0.7434
vt 0.2575 0.7404
vt 0.2612 0.7381
vt 0.2744 0.7076
vt 0.2745 0.7128
vt 0.2727 0.7151
vt 0.2667 0.7170
vt 0.2625 0.7217
vt 0.2612 0.7278
vt 0.2630 0.7336
vt 0.2673 0.7377
vt 0.2730 0.7390
vt 0.2786 0.7374
vt 0.2828 0.7331
vt 0.2845 0.7271
vt 0.2831 0.7211
vt 0.2788 0.7166
vt 0.2693 0.4416
vt 0.2323 0.4522
vt 0.2284 0.4321
vt 0.2580 0.4235
vt 0.6099 0.8051
vt 0.6460 0.7931
vt 0.6830 0.8018
vt 0.7102 0.8285
vt 0.7203 0.8651
vt 0.7112 0.9014
vt 0.6861 0.9280
vt 0.6518 0.9387
vt 0.6168 0.9310
vt 0.5898 0.9066
vt 0.5779 0.8713
vt 0.5850 0.8340
vt 0.1670 0.4176
vt 0.1549 0.3797
vt 0.1667 0.3737
vt 0.1762 0.4041
vt 0.2721 0.3051
vt 0.3005 0.3351
vt 0.2820 0.3385
vt 0.2594 0.3149
vt 0.1913 0.3075
vt 0.2316 0.2947
vt 0.2275 0.3068
vt 0.1958 0.3168
vt 0.2975 0.4139
vt 0.2803 0.4011
vt 0.1953 0.4436
vt 0.1988 0.4251
vt 0.1632 0.3392
vt 0.1736 0.3417
vt 0.3094 0.3752
vt 0.2894 0.3702
vn 0.0000 1.0000 0.0000
vn 0.0000 -0.7100 -0.7042
vn 0.0000 0.5939 -0.8045
vn 0.4022 0.5939 -0.6967
vn 0.3521 -0.7100 -0.6099
vn 0.6967 0.5939 -0.4022
vn 0.6099 -0.7100 -0.3521
vn 0.8045 0.5939 0.0000
vn 0.7042 -0.7100 0.0000
vn 0.6967 0.5939 0.4022
vn 0.6099 -0.7100 0.3521
vn 0.4022 0.5939 0.6967
vn 0.3521 -0.7100 0.6099
vn 0.0000 0.5939 0.8045
vn 0.0000 -0.7100 0.7042
vn -0.4022 0.5939 0.6967
vn -0.3521 -0.7100 0.6099
vn -0.6967 0.5939 0.4022
vn -0.6099 -0.7100 0.3521
vn -0.8045 0.5939 0.0000
vn -0.7042 -0.7100 0.0000
vn -0.6967 0.5939 -0.4022
vn -0.6099 -0.7100 -0.3521
vn -0.4022 0.5939 -0.6967
vn -0.3521 -0.7100 -0.6099
vn 0.2959 0.8061 -0.5125
vn 0.0000 0.8061 -0.5918
vn 0.0000 0.6974 -0.7166
vn 0.3583 0.6974 -0.6206
vn -0.3583 0.6974 0.6206
vn 0.0000 0.6974 0.7166
vn 0.3583 0.6974 0.6206
vn 0.6206 0.6974 0.3583
vn 0.7166 0.6974 0.0000
vn 0.6206 0.6974 -0.3583
vn -0.3583 0.6974 -0.6206
vn -0.6206 0.6974 -0.3583
vn -0.7166 0.6974 0.0000
vn -0.6206 0.6974 0.3583
vn -0.5125 0.8061 -0.2959
vn -0.5918 0.8061 0.0000
vn 0.2959 0.8061 0.5125
vn 0.5125 0.8061 0.2959
vn -0.2959 0.8061 0.5125
vn 0.0000 0.8061 0.5918
vn 0.5125 0.8061 -0.2959
vn -0.2959 0.8061 -0.5125
vn -0.5125 0.8061 0.2959
vn 0.5918 0.8061 0.0000
g Cylinder.028_Cylinder.013_Boxes
usemtl Boxes
s off
f 142/49/111 140/50/111 161/51/111 162/52/111
f 158/53/111 156/54/111 169/55/111 170/56/111
f 140/50/111 138/57/111 160/58/111 161/51/111
f 156/54/111 154/59/111 168/60/111 169/55/111
f 154/59/111 152/61/111 167/62/111 168/60/111
f 152/61/111 150/63/111 166/64/111 167/62/111
f 150/63/111 148/65/111 165/66/111 166/64/111
f 148/65/111 146/67/111 164/68/111 165/66/111
f 146/67/111 144/69/111 163/70/111 164/68/111
f 144/69/111 142/49/111 162/52/111 163/70/111
f 136/71/111 158/53/111 170/56/111 159/72/111
f 138/57/111 136/71/111 159/72/111 160/58/111
s 1
f 135/73/112 136/71/113 138/57/114 137/74/115
f 137/74/115 138/57/114 140/50/116 139/75/117
f 139/75/117 140/50/116 142/49/118 141/76/119
f 141/76/119 142/49/118 144/69/120 143/77/121
f 143/77/121 144/69/120 146/67/122 145/78/123
f 145/78/123 146/67/122 148/65/124 147/79/125
f 147/79/125 148/65/124 150/63/126 149/80/127
f 149/80/127 150/63/126 152/61/128 151/81/129
f 151/81/129 152/61/128 154/59/130 153/82/131
f 153/82/131 154/59/130 156/54/132 155/83/133
f 155/83/133 156/54/132 158/53/134 157/84/135
f 157/84/135 158/53/134 136/71/113 135/73/112
f 135/73/112 137/74/115 139/75/117 141/76/119 143/77/121 145/78/123 147/79/125 149/80/127 151/81/129 153/82/131 155/83/133 157/84/135
f 166/85/136 165/86/137 177/87/138 178/88/139
f 172/89/140 171/90/141 182/91/142 181/92/143 180/93/144 179/94/145 178/95/139 177/96/138 176/97/146 175/98/147 174/99/148 173/100/149
f 163/101/150 162/102/151 174/103/148 175/104/147
f 170/105/152 169/106/153 181/107/143 182/108/142
f 160/109/154 159/110/155 171/111/141 172/112/140
f 167/113/156 166/85/136 178/88/139 179/114/145
f 164/115/157 163/101/150 175/104/147 176/116/146
f 159/110/155 170/105/152 182/108/142 171/111/141
f 161/117/158 160/109/154 172/112/140 173/118/149
f 168/119/159 167/113/156 179/114/145 180/120/144
f 165/86/137 164/115/157 176/116/146 177/87/138
f 162/102/151 161/117/158 173/118/149 174/103/148
f 169/106/153 168/119/159 180/120/144 181/107/143
