# Blender v2.78 (sub 0) OBJ File: 'RobotFactory.blend'
# www.blender.org
mtllib Display3.mtl
o Cube.130_Cube.138
v 0.184438 1.602597 0.389211
v 0.225767 1.680484 0.389211
v 0.184438 1.602597 0.272479
v 0.225767 1.680484 0.272479
v 0.272310 1.551864 0.389211
v 0.313639 1.629751 0.389211
v 0.272310 1.551864 0.272479
v 0.313639 1.629751 0.272479
v 0.184438 1.602597 0.226372
v 0.225767 1.680484 0.226372
v 0.184438 1.602597 0.109639
v 0.225767 1.680484 0.109639
v 0.272310 1.551864 0.226372
v 0.313639 1.629751 0.226372
v 0.272310 1.551864 0.109639
v 0.313639 1.629751 0.109639
v 0.484922 1.413963 -0.300456
v 0.539024 1.515921 -0.300456
v 0.484922 1.413963 -0.453265
v 0.539024 1.515921 -0.453265
v 0.599951 1.347551 -0.300456
v 0.654052 1.449510 -0.300456
v 0.599951 1.347551 -0.453265
v 0.654052 1.449510 -0.453265
v 0.332505 1.501058 -0.300456
v 0.386607 1.603016 -0.300456
v 0.332505 1.501058 -0.453265
v 0.386607 1.603016 -0.453265
v 0.447534 1.434646 -0.300456
v 0.501636 1.536604 -0.300456
v 0.447534 1.434646 -0.453265
v 0.501636 1.536604 -0.453265
v 0.484922 1.413963 -0.106755
v 0.539024 1.515921 -0.106755
v 0.484922 1.413963 -0.259563
v 0.539024 1.515921 -0.259563
v 0.599951 1.347551 -0.106755
v 0.654053 1.449510 -0.106755
v 0.599951 1.347551 -0.259563
v 0.654052 1.449510 -0.259563
v 0.515637 1.425013 0.389495
v 0.556966 1.502900 0.389495
v 0.515637 1.425013 0.272763
v 0.556966 1.502900 0.272763
v 0.603508 1.374280 0.389495
v 0.644837 1.452167 0.389495
v 0.603508 1.374280 0.272763
v 0.644837 1.452167 0.272763
v 0.092640 1.945166 -0.551781
v 0.092639 2.925035 -0.551781
v 0.092640 1.945166 0.505311
v 0.092640 2.925035 0.505311
v -0.036669 1.945166 -0.551781
v -0.036669 2.925035 -0.551781
v -0.036669 1.945166 0.505311
v -0.036669 2.925035 0.505311
v 0.092640 2.035547 0.389767
v 0.092640 2.035547 -0.436236
v 0.092640 2.834654 -0.436236
v 0.092640 2.834654 0.389767
v 0.058929 2.035547 0.389767
v 0.058928 2.035547 -0.436236
v 0.058928 2.834654 -0.436236
v 0.058929 2.834654 0.389767
v 0.092640 1.716650 0.505311
v 0.092640 1.716650 -0.551781
v -0.036669 1.716650 0.505311
v -0.036669 1.716650 -0.551781
v 0.698739 1.379020 0.505311
v 0.698739 1.379020 -0.551781
v -0.036669 1.379020 0.505311
v -0.036669 1.379020 -0.551781
v 0.698739 1.225806 0.505311
v 0.698739 1.225806 -0.551781
v -0.036669 1.225806 0.505311
v -0.036669 1.225806 -0.551781
vt 0.2944 0.7470
vt 0.0334 0.7475
vt 0.0459 0.7382
vt 0.2829 0.7388
vt 0.7715 0.2503
vt 0.7709 0.3866
vt 0.7535 0.3877
vt 0.7556 0.2507
vt 0.9716 0.0667
vt 0.9717 0.1262
vt 0.9076 0.1261
vt 0.9078 0.0668
vt 0.9927 0.4790
vt 0.9943 0.6036
vt 0.9784 0.6028
vt 0.9786 0.4787
vt 0.7563 0.2024
vt 0.7717 0.2021
vt 0.8493 0.5949
vt 0.7561 0.5949
vt 0.7561 0.5546
vt 0.8493 0.5546
vt 0.2829 0.5697
vt 0.2779 0.7325
vt 0.2765 0.5768
vt 0.0334 0.5596
vt 0.2944 0.5592
vt 0.0454 0.5690
vt 0.3789 0.9697
vt 0.0650 0.9688
vt 0.0754 0.9617
vt 0.3723 0.9612
vt 0.0542 0.5760
vt 0.0643 0.7447
vt 0.0759 0.7539
vt 0.9922 0.4364
vt 0.9786 0.4363
vt 0.9187 0.4028
vt 0.9917 0.4026
vt 0.0334 0.5596
vt 0.2944 0.5592
vt 0.9078 0.0431
vt 0.9715 0.0431
vt 0.8401 0.1629
vt 0.7569 0.1633
vt 0.7572 0.1463
vt 0.8393 0.1463
vt 0.9079 0.0229
vt 0.9715 0.0228
vt 0.0334 0.5596
vt 0.2944 0.5592
vt 0.3568 0.0214
vt 0.4479 0.0214
vt 0.4479 0.0982
vt 0.3568 0.0982
vt 0.9079 0.0137
vt 0.9715 0.0136
vt 0.8722 0.1504
vt 0.9897 0.1504
vt 0.9897 0.1756
vt 0.8722 0.1756
vt 0.9196 0.3885
vt 0.9915 0.3880
vt 0.4552 0.8374
vt 0.4553 0.8329
vt 0.5018 0.8330
vt 0.5017 0.8375
vt 0.5058 0.8376
vt 0.5057 0.8761
vt 0.5017 0.8760
vt 0.5020 0.7904
vt 0.5019 0.7945
vt 0.4554 0.7944
vt 0.4554 0.7903
vt 0.4551 0.8759
vt 0.4506 0.8758
vt 0.4507 0.8374
vt 0.4552 0.8374
vt 0.4553 0.8329
vt 0.5018 0.8330
vt 0.5017 0.8375
vt 0.5058 0.8376
vt 0.5057 0.8761
vt 0.5017 0.8760
vt 0.5020 0.7904
vt 0.5019 0.7945
vt 0.4554 0.7944
vt 0.4554 0.7903
vt 0.4551 0.8759
vt 0.4506 0.8758
vt 0.4507 0.8374
vt 0.1640 0.0617
vt 0.1656 0.0606
vt 0.1895 0.0610
vt 0.1847 0.0621
vt 0.1906 0.0395
vt 0.1855 0.0436
vt 0.1662 0.0389
vt 0.1645 0.0431
vt 0.1633 0.0854
vt 0.1648 0.0879
vt 0.1882 0.0883
vt 0.1836 0.0858
vt 0.1892 0.0678
vt 0.1844 0.0680
vt 0.1654 0.0673
vt 0.1638 0.0676
vt 0.1376 0.0612
vt 0.1351 0.0599
vt 0.1592 0.0604
vt 0.1584 0.0616
vt 0.1597 0.0388
vt 0.1588 0.0430
vt 0.1351 0.0382
vt 0.1377 0.0425
vt 0.0693 0.1101
vt 0.0659 0.1103
vt 0.1047 0.1120
vt 0.1054 0.1117
vt 0.1061 0.0783
vt 0.1067 0.0802
vt 0.0671 0.0765
vt 0.0705 0.0786
vt 0.7195 0.1451
vt 0.7195 0.3340
vt 0.5307 0.3340
vt 0.5307 0.1451
vn 1.0000 0.0000 -0.0000
vn 0.0000 0.0000 1.0000
vn -1.0000 -0.0000 0.0000
vn 0.0000 0.0000 -1.0000
vn 0.0000 1.0000 -0.0000
vn 0.0000 -1.0000 -0.0000
vn 0.4866 0.8736 -0.0000
vn -0.8833 0.4687 0.0000
vn 0.8833 -0.4687 -0.0000
vn 0.5000 0.8660 -0.0000
g Cube.130_Cube.138_Roomba2
usemtl Roomba2
s off
f 50/1/1 52/2/1 60/3/1 59/4/1
f 51/5/2 52/6/2 56/7/2 55/8/2
f 55/9/3 56/10/3 54/11/3 53/12/3
f 53/13/4 54/14/4 50/15/4 49/16/4
f 51/5/2 55/8/2 67/17/2 65/18/2
f 56/19/5 52/20/5 50/21/5 54/22/5
f 58/23/2 59/4/2 63/24/2 62/25/2
f 51/26/1 49/27/1 58/23/1 57/28/1
f 52/2/1 51/26/1 57/28/1 60/3/1
f 49/27/1 50/1/1 59/4/1 58/23/1
f 59/29/6 60/30/6 64/31/6 63/32/6
f 57/28/5 58/23/5 62/25/5 61/33/5
f 60/30/4 57/34/4 61/35/4 64/31/4
f 68/36/4 66/37/4 70/38/4 72/39/4
f 49/27/1 51/26/1 65/40/1 66/41/1
f 55/9/3 53/12/3 68/42/3 67/43/3
f 53/13/4 49/16/4 66/37/4 68/36/4
f 69/44/2 71/45/2 75/46/2 73/47/2
f 65/18/2 67/17/2 71/45/2 69/44/2
f 67/43/3 68/42/3 72/48/3 71/49/3
f 66/41/7 65/40/7 69/50/7 70/51/7
f 73/52/6 75/53/6 76/54/6 74/55/6
f 71/49/3 72/48/3 76/56/3 75/57/3
f 70/58/1 69/59/1 73/60/1 74/61/1
f 72/39/4 70/38/4 74/62/4 76/63/4
g Cube.130_Cube.138_FaceEmission
usemtl FaceEmission
f 1/64/8 2/65/8 4/66/8 3/67/8
f 3/67/4 4/68/4 8/69/4 7/70/4
f 7/71/9 8/72/9 6/73/9 5/74/9
f 5/75/2 6/76/2 2/77/2 1/64/2
f 8/72/10 4/66/10 2/65/10 6/73/10
f 9/78/8 10/79/8 12/80/8 11/81/8
f 11/81/4 12/82/4 16/83/4 15/84/4
f 15/85/9 16/86/9 14/87/9 13/88/9
f 13/89/2 14/90/2 10/91/2 9/78/2
f 16/86/10 12/80/10 10/79/10 14/87/10
f 17/92/8 18/93/8 20/94/8 19/95/8
f 19/95/4 20/94/4 24/96/4 23/97/4
f 23/97/9 24/96/9 22/98/9 21/99/9
f 21/99/2 22/98/2 18/93/2 17/92/2
f 24/96/10 20/94/10 18/93/10 22/98/10
f 25/100/8 26/101/8 28/102/8 27/103/8
f 27/103/4 28/102/4 32/104/4 31/105/4
f 31/105/9 32/104/9 30/106/9 29/107/9
f 29/107/2 30/106/2 26/101/2 25/100/2
f 32/104/10 28/102/10 26/101/10 30/106/10
f 33/108/8 34/109/8 36/110/8 35/111/8
f 35/111/4 36/110/4 40/112/4 39/113/4
f 39/113/9 40/112/9 38/114/9 37/115/9
f 37/115/2 38/114/2 34/109/2 33/108/2
f 40/112/10 36/110/10 34/109/10 38/114/10
f 41/116/8 42/117/8 44/118/8 43/119/8
f 43/119/4 44/118/4 48/120/4 47/121/4
f 47/121/9 48/120/9 46/122/9 45/123/9
f 45/123/2 46/122/2 42/117/2 41/116/2
f 48/120/10 44/118/10 42/117/10 46/122/10
f 62/124/1 63/125/1 64/126/1 61/127/1
