# Blender v2.78 (sub 0) OBJ File: 'RobotFactory.blend'
# www.blender.org
mtllib Door-Security.mtl
o Cube.157_Cube.182
v -1.865853 0.011003 -0.198005
v 1.817833 0.011003 -0.198005
v -1.865853 0.011003 0.220358
v 1.817833 0.011003 0.220357
v 1.438447 0.011003 -0.198005
v 1.438447 0.011003 0.220357
v -1.436659 0.011003 -0.198005
v -1.436659 0.011003 0.220358
v -1.052272 4.511987 -0.198005
v -1.865853 3.344093 -0.198005
v 1.817833 3.349502 -0.198005
v 1.026904 4.511987 -0.198005
v -1.865853 3.344093 0.220358
v -1.052272 4.511987 0.220357
v 1.026904 4.511987 0.220357
v 1.817833 3.349502 0.220357
v 0.850879 4.136792 0.220357
v 1.438447 3.307845 0.220357
v 0.850879 4.136792 -0.198005
v 1.438447 3.307845 -0.198005
v -0.849172 4.136792 -0.198005
v -1.436659 3.302435 -0.198005
v -1.436659 3.302435 0.220358
v -0.849172 4.136793 0.220357
vt 0.0291 0.0408
vt 0.0343 0.0436
vt 0.0344 0.0264
vt 0.0293 0.0229
vt 0.0280 0.1778
vt 0.0333 0.1753
vt 0.0334 0.1598
vt 0.0282 0.1617
vt 0.1606 0.0231
vt 0.1588 0.0410
vt 0.1958 0.0645
vt 0.2129 0.0553
vt 0.2132 0.1454
vt 0.1959 0.1373
vt 0.1590 0.0440
vt 0.1607 0.0268
vt 0.1591 0.1612
vt 0.1592 0.1591
vt 0.1945 0.1362
vt 0.1943 0.0665
vt 0.1609 0.1773
vt 0.1609 0.1746
vt 0.2110 0.1439
vt 0.2107 0.0578
vn 0.0000 -1.0000 0.0000
vn -0.0000 0.0000 -1.0000
vn 1.0000 0.0000 0.0000
vn 0.0000 0.0000 1.0000
vn -1.0000 0.0000 0.0000
vn 0.8268 0.5625 0.0000
vn -0.8205 0.5716 0.0000
vn -0.8158 -0.5783 0.0000
vn 0.8176 -0.5757 0.0000
vn 0.0000 1.0000 0.0000
g Cube.157_Cube.182_OfficeDoors
usemtl OfficeDoors
s off
f 7/1/1 8/2/1 3/3/1 1/4/1
f 2/5/1 4/6/1 6/7/1 5/8/1
f 1/4/2 10/9/2 22/10/2 7/1/2
f 21/11/2 9/12/2 12/13/2 19/14/2
f 7/1/3 22/10/3 23/15/3 8/2/3
f 8/2/4 23/15/4 13/16/4 3/3/4
f 3/3/5 13/16/5 10/9/5 1/4/5
f 20/17/5 5/8/5 6/7/5 18/18/5
f 21/11/1 19/14/1 17/19/1 24/20/1
f 2/5/3 11/21/3 16/22/3 4/6/3
f 4/6/4 16/22/4 18/18/4 6/7/4
f 5/8/2 20/17/2 11/21/2 2/5/2
f 17/19/4 15/23/4 14/24/4 24/20/4
f 12/13/6 15/23/6 16/22/6 11/21/6
f 14/24/7 9/12/7 10/9/7 13/16/7
f 9/12/2 21/11/2 22/10/2 10/9/2
f 13/16/4 23/15/4 24/20/4 14/24/4
f 15/23/4 17/19/4 18/18/4 16/22/4
f 20/17/8 18/18/8 17/19/8 19/14/8
f 23/15/9 22/10/9 21/11/9 24/20/9
f 19/14/2 12/13/2 11/21/2 20/17/2
f 15/23/10 12/13/10 9/12/10 14/24/10
o Cube.156_Cube.181
v -1.439583 0.036303 -0.074324
v 1.446665 0.768869 0.087668
v 1.446665 0.036303 -0.074325
v 1.446665 0.768869 -0.062851
v -1.439583 0.036303 0.099141
v -1.439583 0.768869 -0.062851
v 1.446665 0.036303 0.099141
v -1.439583 0.768869 0.087668
v -0.864325 4.146807 -0.062851
v -1.439583 3.312029 -0.062851
v 0.871406 4.146807 -0.062851
v 1.446665 3.312029 -0.062851
v -0.864325 4.146807 0.087668
v -1.439583 3.312029 0.087668
v 0.871406 4.146807 0.087668
v 1.446665 3.312029 0.087668
v 1.446665 0.036303 -0.131438
v -1.439583 0.036303 -0.131438
v 1.446665 0.768869 0.156254
v -1.439583 0.768869 0.156255
v -1.439583 0.768869 -0.131438
v 1.446665 0.768869 -0.131438
v -1.439583 0.036303 0.156255
v 1.446665 0.036303 0.156254
vt 0.8831 0.8204
vt 0.8831 0.6296
vt 0.9114 0.6296
vt 0.9114 0.8204
vt 0.5786 0.4341
vt 0.5778 0.7602
vt 0.1502 0.7618
vt 0.1495 0.4341
vt 0.9167 0.5487
vt 0.9168 0.5958
vt 0.8918 0.5958
vt 0.8919 0.5487
vt 0.5786 0.4357
vt 0.5786 0.7565
vt 0.1488 0.7565
vt 0.1488 0.4358
vt 0.9222 0.8416
vt 0.8806 0.8416
vt 0.8806 0.5538
vt 0.9222 0.5538
vt 0.8905 0.7705
vt 0.8905 0.6233
vt 0.9132 0.6233
vt 0.9132 0.7705
vt 0.4654 0.9061
vt 0.2551 0.9061
vt 0.8905 0.5399
vt 0.9132 0.5399
vt 0.4697 0.9058
vt 0.2513 0.9058
vt 0.9168 0.8519
vt 0.8918 0.8519
vt 0.8918 0.7592
vt 0.9168 0.7592
vt 0.8918 0.8618
vt 0.9118 0.8618
vt 0.5853 0.3368
vt 0.1708 0.3368
vt 0.1708 0.3316
vt 0.5853 0.3316
vt 0.8737 0.8618
vt 0.8737 0.7705
vt 0.5853 0.2371
vt 0.1708 0.2371
vt 0.5599 0.2398
vt 0.5599 0.3305
vt 0.1755 0.3305
vt 0.1755 0.2398
vt 0.9359 0.5538
vt 0.9359 0.8416
vt 0.8668 0.8416
vt 0.8668 0.5538
vt 0.9273 0.7705
vt 0.9273 0.8618
vt 0.8778 0.5958
vt 0.8778 0.5487
vt 0.5599 0.3376
vt 0.1755 0.3376
vt 0.9321 0.5487
vt 0.9321 0.5958
vn 0.0000 1.0000 0.0000
vn 0.0000 0.0000 1.0000
vn -1.0000 -0.0000 0.0000
vn -0.0000 0.0000 -1.0000
vn 0.0000 -1.0000 0.0000
vn 1.0000 0.0000 0.0000
vn 0.8234 0.5674 0.0000
vn -0.8234 0.5674 0.0000
g Cube.156_Cube.181_OfficeDoors
usemtl OfficeDoors
s off
f 39/25/11 35/26/11 33/27/11 37/28/11
f 26/29/12 40/30/12 38/31/12 32/32/12
f 29/33/13 32/34/13 30/35/13 25/36/13
f 30/37/14 34/38/14 36/39/14 28/40/14
f 27/41/15 31/42/15 29/43/15 25/44/15
f 28/45/16 36/46/16 40/47/16 26/48/16
f 33/49/14 35/50/14 36/39/14 34/38/14
f 35/51/17 39/52/17 40/47/17 36/46/17
f 39/53/12 37/54/12 38/31/12 40/30/12
f 37/55/18 33/56/18 34/57/18 38/58/18
f 32/34/13 38/58/13 34/57/13 30/35/13
f 27/59/16 28/45/16 26/48/16 31/60/16
f 30/61/11 28/62/11 46/63/11 45/64/11
f 28/45/16 27/59/16 41/65/16 46/66/16
f 42/67/14 45/64/14 46/63/14 41/68/14
f 48/69/12 43/70/12 44/71/12 47/72/12
f 27/41/15 25/44/15 42/73/15 41/74/15
f 29/43/15 31/42/15 48/75/15 47/76/15
f 31/60/16 26/48/16 43/77/16 48/78/16
f 25/36/13 30/35/13 45/79/13 42/80/13
f 26/81/11 32/82/11 44/71/11 43/70/11
f 32/34/13 29/33/13 47/83/13 44/84/13
o Cube.155_Cube.180
v -0.865780 2.663332 0.191609
v -0.865780 4.137342 0.191609
v -0.865780 2.663332 -0.169363
v -0.865780 4.137342 -0.169363
v -0.538591 2.663332 0.191609
v -0.538591 4.137342 0.191609
v -0.538591 2.663332 -0.169363
v -0.538591 4.137342 -0.169363
vt 0.8749 0.7146
vt 0.8750 0.6981
vt 0.9272 0.6984
vt 0.9272 0.7149
vt 0.7273 0.8750
vt 0.7282 0.5124
vt 0.8321 0.5124
vt 0.8311 0.8750
vt 0.9274 0.5433
vt 0.9273 0.5582
vt 0.8750 0.5579
vt 0.8751 0.5430
vt 0.8331 0.5124
vt 0.8325 0.8750
vt 0.7258 0.8750
vt 0.7264 0.5124
vt 0.9271 0.8551
vt 0.8749 0.8548
vn -1.0000 0.0000 0.0000
vn 0.0000 0.0000 -1.0000
vn 1.0000 0.0000 0.0000
vn 0.0000 0.0000 1.0000
vn 0.0000 -1.0000 0.0000
vn 0.0000 1.0000 0.0000
g Cube.155_Cube.180_OfficeDoors
usemtl OfficeDoors
s off
f 49/85/19 50/86/19 52/87/19 51/88/19
f 51/89/20 52/90/20 56/91/20 55/92/20
f 55/93/21 56/94/21 54/95/21 53/96/21
f 53/97/22 54/98/22 50/99/22 49/100/22
f 51/88/23 55/101/23 53/102/23 49/85/23
f 56/94/24 52/87/24 50/86/24 54/95/24
o Cylinder.028_Cylinder.013
v 0.470837 4.825995 -0.207688
v -0.547119 4.825995 -0.207688
v 0.470837 4.998837 -0.107897
v -0.547119 4.998837 -0.107897
v 0.470837 4.998837 0.091683
v -0.547119 4.998837 0.091683
v 0.470837 4.825995 0.191473
v -0.547119 4.825995 0.191473
v 0.470837 4.653153 0.091683
v -0.547119 4.653153 0.091683
v 0.470837 4.653153 -0.107897
v -0.547119 4.653153 -0.107897
v 0.583259 4.825995 -0.118545
v 0.583259 4.921637 -0.063326
v -0.659542 4.921637 -0.063326
v -0.659542 4.825995 -0.118545
v 0.583259 4.921637 0.047112
v -0.659542 4.921637 0.047112
v 0.583259 4.825995 0.102330
v -0.659542 4.825995 0.102330
v 0.583259 4.730353 0.047112
v -0.659542 4.730353 0.047112
v 0.583259 4.730353 -0.063326
v -0.659542 4.730353 -0.063326
vn 0.3003 0.0000 -0.9538
vn -0.3003 0.0000 -0.9538
vn -0.3003 0.8260 -0.4769
vn 0.3003 0.8260 -0.4769
vn -0.3003 0.8260 0.4769
vn 0.3003 0.8260 0.4769
vn -0.3003 0.0000 0.9538
vn 0.3003 0.0000 0.9538
vn -0.3003 -0.8260 0.4769
vn 0.3003 -0.8260 0.4769
vn 0.3003 -0.8260 -0.4769
vn 0.8435 -0.4652 -0.2685
vn 0.8435 -0.4652 0.2685
vn -0.3003 -0.8260 -0.4769
vn 0.8435 0.0000 -0.5371
vn -0.8435 0.4652 -0.2685
vn -0.8435 0.0000 -0.5371
vn -0.8435 -0.4652 -0.2685
vn -0.8435 -0.4652 0.2685
vn -0.8435 0.0000 0.5371
vn -0.8435 0.4652 0.2685
vn 0.8435 0.4652 -0.2685
vn 0.8435 0.4652 0.2685
vn 0.8435 0.0000 0.5371
g Cylinder.028_Cylinder.013_RED
usemtl RED
s 1
f 57//25 58//26 60//27 59//28
f 59//28 60//27 62//29 61//30
f 61//30 62//29 64//31 63//32
f 63//32 64//31 66//33 65//34
f 65//34 67//35 79//36 77//37
f 65//34 66//33 68//38 67//35
f 67//35 68//38 58//26 57//25
f 67//35 57//25 69//39 79//36
f 71//40 72//41 80//42 78//43 76//44 74//45
f 69//39 70//46 73//47 75//48 77//37 79//36
f 63//32 65//34 77//37 75//48
f 58//26 68//38 80//42 72//41
f 57//25 59//28 70//46 69//39
f 61//30 63//32 75//48 73//47
f 68//38 66//33 78//43 80//42
f 59//28 61//30 73//47 70//46
f 66//33 64//31 76//44 78//43
f 60//27 58//26 72//41 71//40
f 64//31 62//29 74//45 76//44
f 62//29 60//27 71//40 74//45
o Cylinder.027_Cylinder.012
v 0.338244 4.825995 -0.237712
v 0.179940 4.825995 -0.237712
v 0.338244 5.024839 -0.122910
v 0.179940 5.024839 -0.122910
v 0.338244 5.024839 0.106695
v 0.179940 5.024839 0.106695
v 0.338244 4.825995 0.221498
v 0.179940 4.825995 0.221498
v 0.338244 4.627151 0.106695
v 0.179940 4.627151 0.106695
v 0.338244 4.627151 -0.122910
v 0.179940 4.627151 -0.122910
vt 0.1091 0.1553
vt 0.1385 0.2063
vt 0.1091 0.2573
vt 0.0503 0.2573
vt 0.0208 0.2063
vt 0.0503 0.1553
vt 0.1385 0.0733
vt 0.1091 0.1243
vt 0.0503 0.1243
vt 0.0208 0.0733
vt 0.0503 0.0223
vt 0.1091 0.0223
vt 0.1680 0.1243
vt 0.1680 0.1553
vt 0.4033 0.1243
vt 0.4033 0.1553
vt 0.3445 0.1553
vt 0.3445 0.1243
vt 0.2856 0.1553
vt 0.2856 0.1243
vt 0.2268 0.1553
vt 0.2268 0.1243
vn -1.0000 0.0000 0.0000
vn 1.0000 -0.0000 0.0000
vn 0.6100 0.0000 -0.7924
vn -0.6100 0.0000 -0.7924
vn -0.6100 0.6862 -0.3962
vn 0.6100 0.6862 -0.3962
vn -0.6100 0.6862 0.3962
vn 0.6100 0.6862 0.3962
vn -0.6100 0.0000 0.7924
vn 0.6100 0.0000 0.7924
vn -0.6100 -0.6862 0.3962
vn 0.6100 -0.6862 0.3962
vn -0.6100 -0.6862 -0.3962
vn 0.6100 -0.6862 -0.3962
g Cylinder.027_Cylinder.012_OfficeDoors
usemtl OfficeDoors
s off
f 84/103/49 82/104/49 92/105/49 90/106/49 88/107/49 86/108/49
f 81/109/50 83/110/50 85/111/50 87/112/50 89/113/50 91/114/50
s 1
f 81/115/51 82/116/52 84/103/53 83/110/54
f 83/110/54 84/103/53 86/108/55 85/111/56
f 85/117/56 86/118/55 88/119/57 87/120/58
f 87/120/58 88/119/57 90/121/59 89/122/60
f 89/122/60 90/121/59 92/123/61 91/124/62
f 91/124/62 92/123/61 82/116/52 81/115/51
o Cube.154_Cube.179
v 0.827079 4.137342 0.191609
v 0.827078 2.663332 0.191609
v 0.827079 4.137342 -0.169363
v 0.827078 2.663332 -0.169363
v 0.499890 4.137342 0.191609
v 0.499890 2.663332 0.191609
v 0.499890 4.137342 -0.169363
v 0.499890 2.663332 -0.169363
vt 0.8722 0.7188
vt 0.8723 0.7023
vt 0.9245 0.7027
vt 0.9245 0.7191
vt 0.7270 0.8767
vt 0.7279 0.5089
vt 0.8330 0.5089
vt 0.8321 0.8767
vt 0.9246 0.5475
vt 0.9246 0.5624
vt 0.8723 0.5621
vt 0.8724 0.5472
vt 0.8341 0.5089
vt 0.8334 0.8767
vt 0.7255 0.8767
vt 0.7261 0.5089
vt 0.9244 0.8593
vt 0.8722 0.8590
vn 1.0000 -0.0000 0.0000
vn 0.0000 0.0000 -1.0000
vn -1.0000 0.0000 0.0000
vn 0.0000 0.0000 1.0000
vn 0.0000 1.0000 0.0000
vn 0.0000 -1.0000 0.0000
g Cube.154_Cube.179_OfficeDoors
usemtl OfficeDoors
s off
f 93/125/63 94/126/63 96/127/63 95/128/63
f 95/129/64 96/130/64 100/131/64 99/132/64
f 99/133/65 100/134/65 98/135/65 97/136/65
f 97/137/66 98/138/66 94/139/66 93/140/66
f 95/128/67 99/141/67 97/142/67 93/125/67
f 100/134/68 96/127/68 94/126/68 98/135/68
o Cylinder.013_Cylinder.011
v -0.264464 4.825995 -0.237712
v -0.422769 4.825995 -0.237712
v -0.264464 5.024839 -0.122910
v -0.422769 5.024839 -0.122910
v -0.264464 5.024839 0.106695
v -0.422769 5.024839 0.106695
v -0.264464 4.825995 0.221498
v -0.422769 4.825995 0.221498
v -0.264464 4.627151 0.106695
v -0.422769 4.627151 0.106695
v -0.264464 4.627151 -0.122910
v -0.422769 4.627151 -0.122910
vt 0.1091 0.1553
vt 0.1385 0.2063
vt 0.1091 0.2573
vt 0.0503 0.2573
vt 0.0208 0.2063
vt 0.0503 0.1553
vt 0.1385 0.0733
vt 0.1091 0.1243
vt 0.0503 0.1243
vt 0.0208 0.0733
vt 0.0503 0.0223
vt 0.1091 0.0223
vt 0.1680 0.1243
vt 0.1680 0.1553
vt 0.4033 0.1243
vt 0.4033 0.1553
vt 0.3445 0.1553
vt 0.3445 0.1243
vt 0.2856 0.1553
vt 0.2856 0.1243
vt 0.2268 0.1553
vt 0.2268 0.1243
vn -1.0000 0.0000 0.0000
vn 1.0000 -0.0000 0.0000
vn 0.6100 0.0000 -0.7924
vn -0.6100 0.0000 -0.7924
vn -0.6100 0.6862 -0.3962
vn 0.6100 0.6862 -0.3962
vn -0.6100 0.6862 0.3962
vn 0.6100 0.6862 0.3962
vn -0.6100 0.0000 0.7924
vn 0.6100 0.0000 0.7924
vn -0.6100 -0.6862 0.3962
vn 0.6100 -0.6862 0.3962
vn -0.6100 -0.6862 -0.3962
vn 0.6100 -0.6862 -0.3962
g Cylinder.013_Cylinder.011_OfficeDoors
usemtl OfficeDoors
s off
f 104/143/69 102/144/69 112/145/69 110/146/69 108/147/69 106/148/69
f 101/149/70 103/150/70 105/151/70 107/152/70 109/153/70 111/154/70
s 1
f 101/155/71 102/156/72 104/143/73 103/150/74
f 103/150/74 104/143/73 106/148/75 105/151/76
f 105/157/76 106/158/75 108/159/77 107/160/78
f 107/160/78 108/159/77 110/161/79 109/162/80
f 109/162/80 110/161/79 112/163/81 111/164/82
f 111/164/82 112/163/81 102/156/72 101/155/71
