# Blender v2.78 (sub 0) OBJ File: 'RobotFactory.blend'
# www.blender.org
mtllib Door-Vent.mtl
o Cube.156_Cube.220
v -1.033373 -0.001433 -0.079203
v -1.033373 1.530566 -0.079203
v 1.017092 -0.001433 -0.079203
v 1.017092 1.530566 -0.079203
v -1.033373 -0.001433 0.066873
v -1.033373 1.530566 0.066873
v 1.019469 -0.001433 0.066873
v 1.017092 1.530566 0.066873
v 0.745901 1.273813 0.066873
v 0.745901 1.273813 -0.079203
v -0.762658 1.273813 -0.079203
v -0.762658 1.273813 0.066873
v 0.745901 0.097522 0.066873
v 0.745901 0.097522 -0.079203
v -0.762658 0.097522 -0.079203
v -0.762658 0.097522 0.066873
vt 0.4129 0.8701
vt 0.4630 0.9175
vt 0.0855 0.9168
vt 0.1349 0.8699
vt 0.1617 0.7846
vt 0.1401 0.7842
vt 0.1401 0.6746
vt 0.1617 0.6751
vt 0.1472 0.5888
vt 0.1472 0.5395
vt 0.4022 0.5395
vt 0.4022 0.5888
vt 0.4134 0.8656
vt 0.4629 0.9186
vt 0.0820 0.9185
vt 0.1348 0.8656
vt 0.4639 0.6025
vt 0.4639 0.8516
vt 0.4126 0.8516
vt 0.4126 0.6025
vt 0.4642 0.5739
vt 0.4136 0.5870
vt 0.4012 0.9170
vt 0.1475 0.9170
vt 0.1475 0.8671
vt 0.4012 0.8671
vt 0.4605 0.5771
vt 0.4123 0.5862
vt 0.1494 0.8528
vt 0.1420 0.8526
vt 0.1426 0.6001
vt 0.1500 0.6002
vt 0.1335 0.5863
vt 0.0819 0.5788
vt 0.1616 0.7768
vt 0.1345 0.7768
vt 0.1345 0.6648
vt 0.1616 0.6648
vt 0.1343 0.5884
vt 0.0845 0.5760
vt 0.0826 0.8510
vt 0.0826 0.5999
vt 0.1352 0.5999
vt 0.1373 0.8510
vt 0.3896 0.7568
vt 0.4133 0.7568
vt 0.4133 0.7885
vt 0.3896 0.7885
vn -0.0000 0.0000 -1.0000
vn 0.0000 1.0000 0.0000
vn 0.0000 -0.0000 1.0000
vn 1.0000 0.0000 0.0000
vn 0.0000 -1.0000 0.0000
vn -1.0000 0.0000 0.0000
vn 1.0000 0.0008 -0.0081
g Cube.156_Cube.220_Boxes
usemtl Boxes
s off
f 11/1/1 2/2/1 4/3/1 10/4/1
f 8/5/2 4/6/2 2/7/2 6/8/2
f 13/9/2 14/10/2 15/11/2 16/12/2
f 9/13/3 8/14/3 6/15/3 12/16/3
f 15/17/4 11/18/4 12/19/4 16/20/4
f 1/21/1 2/2/1 11/1/1 15/22/1
f 11/23/5 10/24/5 9/25/5 12/26/5
f 7/27/3 8/14/3 9/13/3 13/28/3
f 5/29/6 6/30/6 2/31/6 1/32/6
f 16/33/3 12/16/3 6/15/3 5/34/3
f 3/35/7 4/36/7 8/37/7 7/38/7
f 14/39/1 10/4/1 4/3/1 3/40/1
f 10/41/6 14/42/6 13/43/6 9/44/6
f 7/27/3 13/28/3 16/33/3 5/34/3
f 14/39/1 3/40/1 1/21/1 15/22/1
f 3/45/5 7/46/5 5/47/5 1/48/5
o Cube.155_Cube.219
v -0.740030 0.908125 -0.098255
v -0.740030 1.075961 -0.179337
v -0.740030 0.847365 -0.155363
v 0.728438 1.075961 -0.179337
v 0.728438 0.847365 -0.155363
v -0.740030 1.136721 -0.122229
v 0.728438 0.908125 -0.098255
v 0.728438 1.136721 -0.122230
v 0.728438 1.084696 -0.098255
v 0.728438 1.023936 -0.155363
v -0.740030 1.023936 -0.155363
v -0.740030 1.084696 -0.098255
v 0.728438 0.960150 -0.122230
v -0.740030 0.960150 -0.122229
v 0.728438 0.899391 -0.179337
v -0.740030 0.899391 -0.179337
v -0.740030 0.727722 -0.098255
v -0.740030 0.666962 -0.155363
v 0.728438 0.666962 -0.155363
v 0.728438 0.727722 -0.098255
v 0.728438 0.779747 -0.122230
v -0.740030 0.779747 -0.122229
v 0.728438 0.718987 -0.179337
v -0.740030 0.718987 -0.179337
v -0.740030 0.540321 -0.098255
v -0.740030 0.479561 -0.155363
v 0.728438 0.479561 -0.155363
v 0.728438 0.540321 -0.098255
v 0.728438 0.592346 -0.122230
v -0.740030 0.592346 -0.122229
v 0.728438 0.531586 -0.179337
v -0.740030 0.531587 -0.179337
v -0.740030 0.343989 -0.098255
v -0.740030 0.283229 -0.155363
v 0.728438 0.283229 -0.155363
v 0.728438 0.343989 -0.098255
v 0.728438 0.396014 -0.122230
v -0.740030 0.396014 -0.122230
v 0.728438 0.335254 -0.179337
v -0.740030 0.335254 -0.179337
v -0.819431 0.020363 -0.202193
v -0.819431 1.367762 -0.202193
v 0.808068 0.020364 -0.202194
v 0.808068 1.367762 -0.202193
v -0.819431 0.020363 -0.075399
v -0.819431 1.367762 -0.075399
v 0.809954 0.020364 -0.075399
v 0.808068 1.367762 -0.075399
v 0.648809 1.212608 -0.075399
v 0.648809 1.212608 -0.202193
v -0.660629 1.212608 -0.202193
v -0.660629 1.212608 -0.075399
v 0.648809 0.191581 -0.075399
v 0.648809 0.191581 -0.202193
v -0.660629 0.191581 -0.202193
v -0.660629 0.191581 -0.075399
vt 0.2751 0.5758
vt 0.2755 0.5779
vt 0.2206 0.5776
vt 0.2209 0.5756
vt 0.2213 0.5796
vt 0.2747 0.5798
vt 0.2751 0.5555
vt 0.2209 0.5558
vt 0.2215 0.5583
vt 0.2744 0.5580
vt 0.2215 0.5776
vt 0.2744 0.5778
vt 0.2213 0.5600
vt 0.2747 0.5598
vt 0.2206 0.5576
vt 0.2755 0.5573
vt 0.2751 0.5625
vt 0.2755 0.5644
vt 0.2206 0.5645
vt 0.2209 0.5626
vt 0.2213 0.5668
vt 0.2747 0.5667
vt 0.2215 0.5649
vt 0.2744 0.5649
vt 0.2751 0.5692
vt 0.2209 0.5692
vt 0.2215 0.5714
vt 0.2744 0.5714
vt 0.2213 0.5733
vt 0.2747 0.5734
vt 0.2206 0.5711
vt 0.2755 0.5712
vt 0.2751 0.5482
vt 0.2209 0.5486
vt 0.2215 0.5513
vt 0.2744 0.5509
vt 0.2213 0.5530
vt 0.2747 0.5526
vt 0.2206 0.5503
vt 0.2755 0.5499
vt 0.3310 0.5751
vt 0.3344 0.5784
vt 0.3017 0.5778
vt 0.3048 0.5748
vt 0.3023 0.5773
vt 0.3335 0.5778
vt 0.3053 0.5554
vt 0.3048 0.5550
vt 0.3309 0.5545
vt 0.3302 0.5550
vt 0.3052 0.5744
vt 0.3303 0.5747
vt 0.3341 0.5510
vt 0.3024 0.5524
vt 0.3333 0.5517
vt 0.3018 0.5517
vn -0.0000 -0.4185 -0.9082
vn -0.0000 0.6849 -0.7287
vn 0.0000 -0.6849 0.7287
vn 0.0000 0.4185 0.9082
vn -0.0000 0.0000 -1.0000
vn 0.0000 1.0000 0.0000
vn 0.0000 -0.0000 1.0000
vn 1.0000 0.0000 0.0000
vn 0.0000 -1.0000 0.0000
vn -1.0000 -0.0000 0.0000
vn 1.0000 0.0007 -0.0074
g Cube.155_Cube.219_Boxes
usemtl Boxes
s off
f 27/49/8 18/50/8 20/51/8 26/52/8
f 24/53/9 20/51/9 18/50/9 22/54/9
f 42/55/10 43/56/10 44/57/10 41/58/10
f 25/59/11 24/53/11 22/54/11 28/60/11
f 44/57/11 45/61/11 46/62/11 41/58/11
f 45/61/9 47/63/9 48/64/9 46/62/9
f 27/49/10 26/52/10 25/59/10 28/60/10
f 42/55/8 48/64/8 47/63/8 43/56/8
f 34/65/8 40/66/8 39/67/8 35/68/8
f 37/69/9 39/67/9 40/66/9 38/70/9
f 36/71/11 37/69/11 38/70/11 33/72/11
f 34/65/10 35/68/10 36/71/10 33/72/10
f 19/73/10 21/74/10 23/75/10 17/76/10
f 23/75/11 29/77/11 30/78/11 17/76/11
f 29/77/9 31/79/9 32/80/9 30/78/9
f 19/73/8 32/80/8 31/79/8 21/74/8
f 50/81/10 51/82/10 52/83/10 49/84/10
f 52/83/11 53/85/11 54/86/11 49/84/11
f 53/85/9 55/87/9 56/88/9 54/86/9
f 50/81/8 56/88/8 55/87/8 51/82/8
f 67/89/12 58/90/12 60/91/12 66/92/12
f 64/93/13 60/91/13 58/90/13 62/94/13
f 69/95/13 70/96/13 71/97/13 72/98/13
f 65/99/14 64/93/14 62/94/14 68/100/14
f 71/97/15 67/89/15 68/100/15 72/98/15
f 57/101/12 58/90/12 67/89/12 71/97/12
f 67/89/16 66/92/16 65/99/16 68/100/16
f 63/102/14 64/93/14 65/99/14 69/95/14
f 61/103/17 62/94/17 58/90/17 57/101/17
f 72/98/14 68/100/14 62/94/14 61/103/14
f 59/104/18 60/91/18 64/93/18 63/102/18
f 70/96/12 66/92/12 60/91/12 59/104/12
f 66/92/17 70/96/17 69/95/17 65/99/17
f 63/102/14 69/95/14 72/98/14 61/103/14
f 70/96/12 59/104/12 57/101/12 71/97/12
f 59/104/16 63/102/16 61/103/16 57/101/16
o Cube.154_Cube.218
v 0.653535 1.617574 0.026234
v -0.699402 1.617574 0.026234
v 0.653535 1.975442 0.026234
v -0.699402 1.975442 0.026234
vt 0.6519 0.7212
vt 0.6788 0.7218
vt 0.6782 0.9744
vt 0.6513 0.9738
vn 0.0000 0.0000 -1.0000
g Cube.154_Cube.218_Roomba01
usemtl Roomba01
s off
f 73/105/19 74/106/19 76/107/19 75/108/19
o Cube.153_Cube.217
v 0.504642 1.704989 0.059694
v -0.553014 1.704989 0.059694
v 0.504642 1.704989 0.001921
v -0.553014 1.704989 0.001921
v 0.504642 1.888027 0.059694
v -0.553014 1.888027 0.059694
v 0.504642 1.888027 0.001921
v -0.553014 1.888027 0.001921
vt 0.1366 0.0676
vt 0.1366 0.0651
vt 0.1850 0.0652
vt 0.1850 0.0676
vt 0.1872 0.0677
vt 0.1871 0.0884
vt 0.1849 0.0883
vt 0.1851 0.0423
vt 0.1851 0.0445
vt 0.1367 0.0444
vt 0.1367 0.0422
vt 0.1365 0.0883
vn -0.0000 -1.0000 0.0000
vn 0.0000 0.0000 -1.0000
vn 0.0000 1.0000 0.0000
vn 1.0000 0.0000 0.0000
vn -1.0000 0.0000 0.0000
g Cube.153_Cube.217_FaceEmission
usemtl FaceEmission
s off
f 77/109/20 78/110/20 80/111/20 79/112/20
f 79/112/21 80/113/21 84/114/21 83/115/21
f 83/116/22 84/117/22 82/118/22 81/119/22
f 79/112/23 83/115/23 81/120/23 77/109/23
f 84/117/24 80/111/24 78/110/24 82/118/24
