# Blender v2.78 (sub 0) OBJ File: 'RobotFactory.blend'
# www.blender.org
mtllib Elevator.mtl
o Cube.171_Cube.243
v 0.000400 -0.048317 2.452101
v 0.000400 4.038285 2.452101
v 1.551800 -0.048317 2.452101
v 1.551800 4.038285 2.452101
v 0.000400 -0.048317 2.714668
v 0.000400 4.038285 2.714668
v 1.551800 -0.048317 2.714668
v 1.551800 4.038285 2.714668
vt 0.6641 0.4503
vt 0.6647 0.0189
vt 0.9895 0.0195
vt 0.9889 0.4509
vt 0.8939 0.8489
vt 0.8938 0.8619
vt 0.8607 0.8616
vt 0.8608 0.8486
vt 0.9903 0.0190
vt 0.9902 0.4499
vt 0.6663 0.4493
vt 0.6663 0.0184
vt 0.8609 0.5648
vt 0.8610 0.5505
vt 0.8940 0.5508
vt 0.8939 0.5651
vt 0.9308 0.8495
vt 0.8977 0.8492
vt 0.8978 0.5654
vt 0.9309 0.5656
vn 0.0000 0.0000 -1.0000
vn 1.0000 0.0000 0.0000
vn 0.0000 0.0000 1.0000
vn -1.0000 0.0000 0.0000
vn 0.0000 -1.0000 0.0000
vn 0.0000 1.0000 0.0000
g Cube.171_Cube.243_OfficeDoors
usemtl OfficeDoors
s off
f 1/1/1 2/2/1 4/3/1 3/4/1
f 3/5/2 4/6/2 8/7/2 7/8/2
f 7/9/3 8/10/3 6/11/3 5/12/3
f 5/13/4 6/14/4 2/15/4 1/16/4
f 3/5/5 7/8/5 5/13/5 1/16/5
f 8/17/6 4/18/6 2/19/6 6/20/6
o Cube.170_Cube.242
v -1.606750 -0.048317 2.397429
v -1.606750 4.038285 2.397429
v -1.536961 -0.048317 2.397429
v -1.536961 4.038285 2.397429
v -1.606750 -0.048317 2.769340
v -1.606750 4.038285 2.769340
v -1.536961 -0.048317 2.769340
v -1.536961 4.038285 2.769340
vt 0.6641 0.4503
vt 0.6647 0.0189
vt 0.9895 0.0195
vt 0.9889 0.4509
vt 0.8939 0.8489
vt 0.8938 0.8619
vt 0.8607 0.8616
vt 0.8608 0.8486
vt 0.9903 0.0190
vt 0.9902 0.4499
vt 0.6663 0.4493
vt 0.6663 0.0184
vt 0.8609 0.5648
vt 0.8610 0.5505
vt 0.8940 0.5508
vt 0.8939 0.5651
vt 0.9308 0.8495
vt 0.8977 0.8492
vt 0.8978 0.5654
vt 0.9309 0.5656
vn 0.0000 0.0000 -1.0000
vn 1.0000 0.0000 0.0000
vn 0.0000 0.0000 1.0000
vn -1.0000 0.0000 0.0000
vn 0.0000 -1.0000 0.0000
vn 0.0000 1.0000 0.0000
g Cube.170_Cube.242_OfficeDoors
usemtl OfficeDoors
s off
f 9/21/7 10/22/7 12/23/7 11/24/7
f 11/25/8 12/26/8 16/27/8 15/28/8
f 15/29/9 16/30/9 14/31/9 13/32/9
f 13/33/10 14/34/10 10/35/10 9/36/10
f 11/25/11 15/28/11 13/33/11 9/36/11
f 16/37/12 12/38/12 10/39/12 14/40/12
o Cube.169_Cube.241
v 1.512972 -0.048317 2.397429
v 1.512972 4.038285 2.397429
v 1.582760 -0.048317 2.397429
v 1.582760 4.038285 2.397429
v 1.512972 -0.048317 2.769340
v 1.512972 4.038285 2.769340
v 1.582760 -0.048317 2.769340
v 1.582760 4.038285 2.769340
vt 0.6641 0.4503
vt 0.6647 0.0189
vt 0.9895 0.0195
vt 0.9889 0.4509
vt 0.8939 0.8489
vt 0.8938 0.8619
vt 0.8607 0.8616
vt 0.8608 0.8486
vt 0.9903 0.0190
vt 0.9902 0.4499
vt 0.6663 0.4493
vt 0.6663 0.0184
vt 0.8609 0.5648
vt 0.8610 0.5505
vt 0.8940 0.5508
vt 0.8939 0.5651
vt 0.9308 0.8495
vt 0.8977 0.8492
vt 0.8978 0.5654
vt 0.9309 0.5656
vn 0.0000 0.0000 -1.0000
vn 1.0000 0.0000 0.0000
vn 0.0000 0.0000 1.0000
vn -1.0000 0.0000 0.0000
vn 0.0000 -1.0000 0.0000
vn 0.0000 1.0000 0.0000
g Cube.169_Cube.241_OfficeDoors
usemtl OfficeDoors
s off
f 17/41/13 18/42/13 20/43/13 19/44/13
f 19/45/14 20/46/14 24/47/14 23/48/14
f 23/49/15 24/50/15 22/51/15 21/52/15
f 21/53/16 22/54/16 18/55/16 17/56/16
f 19/45/17 23/48/17 21/53/17 17/56/17
f 24/57/18 20/58/18 18/59/18 22/60/18
o Cube.168_Cube.240
v -1.559722 -0.048317 2.452101
v -1.559722 4.038285 2.452101
v -0.008322 -0.048317 2.452101
v -0.008322 4.038285 2.452101
v -1.559722 -0.048317 2.714668
v -1.559722 4.038285 2.714668
v -0.008322 -0.048317 2.714668
v -0.008322 4.038285 2.714668
vt 0.6641 0.4503
vt 0.6647 0.0189
vt 0.9895 0.0195
vt 0.9889 0.4509
vt 0.8939 0.8489
vt 0.8938 0.8619
vt 0.8607 0.8616
vt 0.8608 0.8486
vt 0.9903 0.0190
vt 0.9902 0.4499
vt 0.6663 0.4493
vt 0.6663 0.0184
vt 0.8609 0.5648
vt 0.8610 0.5505
vt 0.8940 0.5508
vt 0.8939 0.5651
vt 0.9308 0.8495
vt 0.8977 0.8492
vt 0.8978 0.5654
vt 0.9309 0.5656
vn 0.0000 0.0000 -1.0000
vn 1.0000 0.0000 0.0000
vn 0.0000 0.0000 1.0000
vn -1.0000 0.0000 0.0000
vn 0.0000 -1.0000 0.0000
vn 0.0000 1.0000 0.0000
g Cube.168_Cube.240_OfficeDoors
usemtl OfficeDoors
s off
f 25/61/19 26/62/19 28/63/19 27/64/19
f 27/65/20 28/66/20 32/67/20 31/68/20
f 31/69/21 32/70/21 30/71/21 29/72/21
f 29/73/22 30/74/22 26/75/22 25/76/22
f 27/65/23 31/68/23 29/73/23 25/76/23
f 32/77/24 28/78/24 26/79/24 30/80/24
o Cube.167_Cube.239
v -2.236966 -0.073617 -2.521012
v -2.236966 4.400072 -2.521012
v 2.220079 -0.073617 -2.521012
v 2.220079 4.400072 -2.521012
v -2.236966 -0.073617 -1.967739
v -2.236966 4.400072 -1.967739
v 2.220079 -0.073617 -1.967739
v 2.220079 4.400072 -1.967739
v 1.561841 -0.073617 -2.521012
v 1.561841 -0.073617 -1.967739
v -1.592265 -0.073617 -2.521012
v -1.592265 -0.073617 -1.967739
v 1.561841 4.052172 -1.967739
v 1.561841 4.052172 -2.521012
v -1.592265 4.052172 -2.521012
v -1.592265 4.052172 -1.967739
v 2.794955 -0.073617 -1.967739
v 2.794955 -0.073617 -2.521012
v -2.811843 -0.073617 -2.521012
v -2.811843 -0.073617 -1.967739
v -2.811843 4.400072 -1.967739
v 2.794955 4.400072 -1.967739
v 2.794955 4.400072 -2.521012
v -2.811843 4.400072 -2.521012
v -2.236966 -0.073617 2.286571
v -2.236966 4.400072 2.286571
v 2.220079 -0.073617 2.286571
v 2.220079 4.400072 2.286571
v -2.236966 -0.073617 2.839844
v -2.236966 4.400072 2.839844
v 2.220079 -0.073617 2.839844
v 2.220079 4.400072 2.839844
v 1.561841 -0.073617 2.286571
v 1.561841 -0.073617 2.839844
v -1.592265 -0.073617 2.286571
v -1.592265 -0.073617 2.839844
v 1.561841 4.052172 2.839844
v 1.561841 4.052172 2.286571
v -1.592265 4.052172 2.286571
v -1.592265 4.052172 2.839844
v 2.794955 -0.073617 2.839843
v 2.794955 -0.073617 2.286570
v -2.811843 -0.073617 2.286571
v -2.811843 -0.073617 2.839844
v -2.811843 4.400072 2.839844
v 2.794955 4.400072 2.839843
v 2.794955 4.400072 2.286570
v -2.811843 4.400072 2.286571
vt 0.8644 0.7525
vt 0.9336 0.7527
vt 0.9335 0.8109
vt 0.8644 0.8107
vt 0.8645 0.6493
vt 0.9337 0.6495
vt 0.9336 0.7124
vt 0.8645 0.7122
vt 0.0434 0.1662
vt 0.0254 0.1814
vt 0.0271 0.0335
vt 0.0444 0.0483
vt 0.2968 0.0832
vt 0.3804 0.0832
vt 0.3804 0.1735
vt 0.2968 0.1735
vt 0.4593 0.0508
vt 0.4754 0.0370
vt 0.4768 0.1741
vt 0.4603 0.1605
vt 0.2090 0.7208
vt 0.2093 0.7059
vt 0.2093 0.7059
vt 0.2090 0.7208
vt 0.2686 0.1719
vt 0.2682 0.1586
vt 0.2209 0.0832
vt 0.2209 0.1735
vt 0.2425 0.0376
vt 0.2423 0.0510
vt 0.2413 0.1575
vt 0.2412 0.1704
vt 0.2648 0.0504
vt 0.2643 0.0370
vt 0.8786 0.8023
vt 0.8785 0.7964
vt 0.9265 0.7948
vt 0.9268 0.8007
vt 0.8645 0.6493
vt 0.9337 0.6495
vt 0.0271 0.0335
vt 0.2643 0.0370
vt 0.0608 0.9731
vt 0.0460 0.9728
vt 0.0466 0.7203
vt 0.0614 0.7206
vt 0.6519 0.7212
vt 0.6653 0.7215
vt 0.6647 0.9741
vt 0.6513 0.9738
vt 0.8723 0.8025
vt 0.8723 0.7966
vt 0.2686 0.1719
vt 0.0254 0.1814
vt 0.9327 0.7946
vt 0.9330 0.8005
vt 0.9335 0.8109
vt 0.8644 0.8107
vt 0.8644 0.7525
vt 0.9336 0.7527
vt 0.9335 0.8109
vt 0.8644 0.8107
vt 0.8645 0.6493
vt 0.9337 0.6495
vt 0.9336 0.7124
vt 0.8645 0.7122
vt 0.0434 0.1662
vt 0.0254 0.1814
vt 0.0271 0.0335
vt 0.0444 0.0483
vt 0.2968 0.0832
vt 0.3804 0.0832
vt 0.3804 0.1735
vt 0.2968 0.1735
vt 0.4593 0.0508
vt 0.4754 0.0370
vt 0.4768 0.1741
vt 0.4603 0.1605
vt 0.2090 0.7208
vt 0.2093 0.7059
vt 0.2093 0.7059
vt 0.2090 0.7208
vt 0.2686 0.1719
vt 0.2682 0.1586
vt 0.2209 0.0832
vt 0.2209 0.1735
vt 0.2425 0.0376
vt 0.2423 0.0510
vt 0.2413 0.1575
vt 0.2412 0.1704
vt 0.2648 0.0504
vt 0.2643 0.0370
vt 0.8796 0.8553
vt 0.8794 0.8490
vt 0.9291 0.8474
vt 0.9294 0.8536
vt 0.8645 0.6493
vt 0.9337 0.6495
vt 0.6653 0.7215
vt 0.6519 0.7212
vt 0.6519 0.7212
vt 0.6653 0.7215
vt 0.0608 0.9731
vt 0.0460 0.9728
vt 0.0466 0.7203
vt 0.0614 0.7206
vt 0.6647 0.9741
vt 0.6513 0.9738
vt 0.8731 0.8555
vt 0.8730 0.8492
vt 0.0271 0.0335
vt 0.2643 0.0370
vt 0.2425 0.0376
vt 0.4754 0.0370
vt 0.4768 0.1741
vt 0.2412 0.1704
vt 0.9355 0.8471
vt 0.9359 0.8534
vt 0.9335 0.8109
vt 0.8644 0.8107
vt 0.8645 0.6493
vt 0.8645 0.6493
vt 0.2686 0.1719
vt 0.0254 0.1814
vt 0.0466 0.7203
vt 0.0614 0.7206
vt 0.8644 0.8107
vt 0.8644 0.8107
vn -0.0000 -1.0000 0.0000
vn 0.0000 0.0000 -1.0000
vn -1.0000 0.0000 0.0000
vn 0.0000 -0.0000 1.0000
vn 1.0000 0.0000 0.0000
vn 0.0000 1.0000 0.0000
g Cube.167_Cube.239_OfficeDoors
usemtl OfficeDoors
s off
f 43/81/25 44/82/25 37/83/25 33/84/25
f 35/85/25 39/86/25 42/87/25 41/88/25
f 47/89/26 34/90/26 36/91/26 46/92/26
f 46/93/27 41/94/27 42/95/27 45/96/27
f 45/97/28 40/98/28 38/99/28 48/100/28
f 43/101/29 47/102/29 48/103/29 44/104/29
f 33/105/26 34/90/26 47/89/26 43/106/26
f 47/107/25 46/93/25 45/96/25 48/108/25
f 39/109/28 40/98/28 45/97/28 42/110/28
f 44/111/28 48/100/28 38/99/28 37/112/28
f 41/113/26 46/92/26 36/91/26 35/114/26
f 40/115/30 36/116/30 34/117/30 38/118/30
f 39/86/25 35/85/25 50/119/25 49/120/25
f 35/114/26 36/91/26 55/121/26 50/122/26
f 52/123/27 53/124/27 56/125/27 51/126/27
f 50/127/29 55/128/29 54/129/29 49/130/29
f 36/116/30 40/115/30 54/131/30 55/132/30
f 34/90/26 33/105/26 51/133/26 56/134/26
f 38/118/30 34/117/30 56/135/30 53/136/30
f 33/84/25 37/83/25 52/137/25 51/138/25
f 67/139/25 68/140/25 61/141/25 57/142/25
f 59/143/25 63/144/25 66/145/25 65/146/25
f 71/147/26 58/148/26 60/149/26 70/150/26
f 70/151/27 65/152/27 66/153/27 69/154/27
f 69/155/28 64/156/28 62/157/28 72/158/28
f 67/159/29 71/160/29 72/161/29 68/162/29
f 57/163/26 58/148/26 71/147/26 67/164/26
f 71/165/25 70/151/25 69/154/25 72/166/25
f 63/167/28 64/156/28 69/155/28 66/168/28
f 68/169/28 72/158/28 62/157/28 61/170/28
f 65/171/26 70/150/26 60/149/26 59/172/26
f 64/173/30 60/174/30 58/175/30 62/176/30
f 63/144/25 59/143/25 74/177/25 73/178/25
f 79/179/29 74/180/29 49/181/29 54/182/29
f 76/183/27 77/184/27 80/185/27 75/186/27
f 74/180/29 79/179/29 78/187/29 73/188/29
f 60/174/30 64/173/30 78/189/30 79/190/30
f 59/172/27 60/149/27 40/191/27 39/192/27
f 64/156/28 63/167/28 73/193/28 78/194/28
f 61/170/28 62/157/28 77/195/28 76/196/28
f 62/176/30 58/175/30 80/197/30 77/198/30
f 57/142/25 61/141/25 76/199/25 75/200/25
f 80/197/30 58/175/30 38/118/30 53/136/30
f 74/177/25 59/143/25 39/201/25 49/202/25
f 58/148/29 57/163/29 37/203/29 38/204/29
f 75/186/27 80/185/27 53/205/27 52/206/27
f 57/142/25 75/200/25 52/207/25 37/208/25
f 60/174/30 79/190/30 54/131/30 40/115/30
o Cube.165_Cube.237
v -1.559722 -0.048317 -2.412987
v -1.559722 4.038285 -2.412987
v -0.008322 -0.048317 -2.412987
v -0.008322 4.038285 -2.412987
v -1.559722 -0.048317 -2.150420
v -1.559722 4.038285 -2.150420
v -0.008322 -0.048317 -2.150420
v -0.008322 4.038285 -2.150420
vt 0.6641 0.4503
vt 0.6647 0.0189
vt 0.9895 0.0195
vt 0.9889 0.4509
vt 0.8939 0.8489
vt 0.8938 0.8619
vt 0.8607 0.8616
vt 0.8608 0.8486
vt 0.9903 0.0190
vt 0.9902 0.4499
vt 0.6663 0.4493
vt 0.6663 0.0184
vt 0.8609 0.5648
vt 0.8610 0.5505
vt 0.8940 0.5508
vt 0.8939 0.5651
vt 0.9308 0.8495
vt 0.8977 0.8492
vt 0.8978 0.5654
vt 0.9309 0.5656
vn 0.0000 0.0000 -1.0000
vn 1.0000 0.0000 0.0000
vn 0.0000 0.0000 1.0000
vn -1.0000 0.0000 0.0000
vn 0.0000 -1.0000 0.0000
vn 0.0000 1.0000 0.0000
g Cube.165_Cube.237_OfficeDoors
usemtl OfficeDoors
s off
f 81/209/31 82/210/31 84/211/31 83/212/31
f 83/213/32 84/214/32 88/215/32 87/216/32
f 87/217/33 88/218/33 86/219/33 85/220/33
f 85/221/34 86/222/34 82/223/34 81/224/34
f 83/213/35 87/216/35 85/221/35 81/224/35
f 88/225/36 84/226/36 82/227/36 86/228/36
o Cube.164_Cube.236
v 1.512972 -0.048317 -2.467659
v 1.512972 4.038285 -2.467659
v 1.582760 -0.048317 -2.467659
v 1.582760 4.038285 -2.467659
v 1.512972 -0.048317 -2.095748
v 1.512972 4.038285 -2.095748
v 1.582760 -0.048317 -2.095748
v 1.582760 4.038285 -2.095748
vt 0.6641 0.4503
vt 0.6647 0.0189
vt 0.9895 0.0195
vt 0.9889 0.4509
vt 0.8939 0.8489
vt 0.8938 0.8619
vt 0.8607 0.8616
vt 0.8608 0.8486
vt 0.9903 0.0190
vt 0.9902 0.4499
vt 0.6663 0.4493
vt 0.6663 0.0184
vt 0.8609 0.5648
vt 0.8610 0.5505
vt 0.8940 0.5508
vt 0.8939 0.5651
vt 0.9308 0.8495
vt 0.8977 0.8492
vt 0.8978 0.5654
vt 0.9309 0.5656
vn 0.0000 0.0000 -1.0000
vn 1.0000 0.0000 0.0000
vn 0.0000 0.0000 1.0000
vn -1.0000 0.0000 0.0000
vn 0.0000 -1.0000 0.0000
vn 0.0000 1.0000 0.0000
g Cube.164_Cube.236_OfficeDoors
usemtl OfficeDoors
s off
f 89/229/37 90/230/37 92/231/37 91/232/37
f 91/233/38 92/234/38 96/235/38 95/236/38
f 95/237/39 96/238/39 94/239/39 93/240/39
f 93/241/40 94/242/40 90/243/40 89/244/40
f 91/233/41 95/236/41 93/241/41 89/244/41
f 96/245/42 92/246/42 90/247/42 94/248/42
o Cube.162_Cube.234
v -1.606750 -0.048317 -2.467659
v -1.606750 4.038285 -2.467659
v -1.536961 -0.048317 -2.467659
v -1.536961 4.038285 -2.467659
v -1.606750 -0.048317 -2.095748
v -1.606750 4.038285 -2.095748
v -1.536961 -0.048317 -2.095748
v -1.536961 4.038285 -2.095748
vt 0.6641 0.4503
vt 0.6647 0.0189
vt 0.9895 0.0195
vt 0.9889 0.4509
vt 0.8939 0.8489
vt 0.8938 0.8619
vt 0.8607 0.8616
vt 0.8608 0.8486
vt 0.9903 0.0190
vt 0.9902 0.4499
vt 0.6663 0.4493
vt 0.6663 0.0184
vt 0.8609 0.5648
vt 0.8610 0.5505
vt 0.8940 0.5508
vt 0.8939 0.5651
vt 0.9308 0.8495
vt 0.8977 0.8492
vt 0.8978 0.5654
vt 0.9309 0.5656
vn 0.0000 0.0000 -1.0000
vn 1.0000 0.0000 0.0000
vn 0.0000 0.0000 1.0000
vn -1.0000 0.0000 0.0000
vn 0.0000 -1.0000 0.0000
vn 0.0000 1.0000 0.0000
g Cube.162_Cube.234_OfficeDoors
usemtl OfficeDoors
s off
f 97/249/43 98/250/43 100/251/43 99/252/43
f 99/253/44 100/254/44 104/255/44 103/256/44
f 103/257/45 104/258/45 102/259/45 101/260/45
f 101/261/46 102/262/46 98/263/46 97/264/46
f 99/253/47 103/256/47 101/261/47 97/264/47
f 104/265/48 100/266/48 98/267/48 102/268/48
o Cube.157_Cube.229
v 0.000400 -0.048317 -2.412987
v 0.000400 4.038285 -2.412987
v 1.551800 -0.048317 -2.412987
v 1.551800 4.038285 -2.412987
v 0.000400 -0.048317 -2.150420
v 0.000400 4.038285 -2.150420
v 1.551800 -0.048317 -2.150420
v 1.551800 4.038285 -2.150420
vt 0.6641 0.4503
vt 0.6647 0.0189
vt 0.9895 0.0195
vt 0.9889 0.4509
vt 0.8939 0.8489
vt 0.8938 0.8619
vt 0.8607 0.8616
vt 0.8608 0.8486
vt 0.9903 0.0190
vt 0.9902 0.4499
vt 0.6663 0.4493
vt 0.6663 0.0184
vt 0.8609 0.5648
vt 0.8610 0.5505
vt 0.8940 0.5508
vt 0.8939 0.5651
vt 0.9308 0.8495
vt 0.8977 0.8492
vt 0.8978 0.5654
vt 0.9309 0.5656
vn 0.0000 0.0000 -1.0000
vn 1.0000 0.0000 0.0000
vn 0.0000 0.0000 1.0000
vn -1.0000 0.0000 0.0000
vn 0.0000 -1.0000 0.0000
vn 0.0000 1.0000 0.0000
g Cube.157_Cube.229_OfficeDoors
usemtl OfficeDoors
s off
f 105/269/49 106/270/49 108/271/49 107/272/49
f 107/273/50 108/274/50 112/275/50 111/276/50
f 111/277/51 112/278/51 110/279/51 109/280/51
f 109/281/52 110/282/52 106/283/52 105/284/52
f 107/273/53 111/276/53 109/281/53 105/284/53
f 112/285/54 108/286/54 106/287/54 110/288/54
