# Blender v2.78 (sub 0) OBJ File: 'RobotFactory.blend'
# www.blender.org
mtllib Security Door BIG.mtl
o Cube.203_Cube.275
v -2.309777 4.269640 -0.414015
v -1.937838 4.479671 -0.414015
v -2.309778 4.269640 0.354416
v -1.937838 4.479671 0.354416
v -3.167275 3.304118 -0.414015
v -3.167275 4.479671 -0.414015
v -3.167275 3.304118 0.354416
v -3.167275 4.479671 0.354416
vn 0.4917 -0.8708 -0.0000
vn -0.0000 -0.0000 1.0000
vn -1.0000 0.0000 -0.0000
vn 0.0000 0.0000 -1.0000
vn 0.7477 -0.6640 0.0000
vn 0.0000 1.0000 0.0000
g Cube.203_Cube.275_Floor
usemtl Floor
s off
f 1//1 2//1 4//1 3//1
f 3//2 4//2 8//2 7//2
f 7//3 8//3 6//3 5//3
f 5//4 6//4 2//4 1//4
f 3//5 7//5 5//5 1//5
f 8//6 4//6 2//6 6//6
o Cube.202_Cube.274
v 0.972400 4.269640 0.354416
v 0.600460 4.479671 0.354416
v 0.972400 4.269640 -0.414015
v 0.600460 4.479671 -0.414015
v 1.829897 3.304118 0.354416
v 1.829897 4.479671 0.354416
v 1.829897 3.304118 -0.414015
v 1.829897 4.479671 -0.414015
vn -0.4917 -0.8708 0.0000
vn 0.0000 0.0000 -1.0000
vn 1.0000 0.0000 0.0000
vn -0.0000 0.0000 1.0000
vn -0.7477 -0.6640 0.0000
vn 0.0000 1.0000 0.0000
g Cube.202_Cube.274_Floor
usemtl Floor
s off
f 9//7 10//7 12//7 11//7
f 11//8 12//8 16//8 15//8
f 15//9 16//9 14//9 13//9
f 13//10 14//10 10//10 9//10
f 11//11 15//11 13//11 9//11
f 16//12 12//12 10//12 14//12
o Cube.201_Cube.273
v -0.015948 1.491717 0.016745
v -0.231684 2.459478 0.016745
v -0.015948 1.491717 0.072464
v -0.231684 2.459478 0.072464
v -1.311881 1.491717 0.016745
v -1.096145 2.459478 0.016745
v -1.311881 1.491717 0.072464
v -1.096145 2.459478 0.072464
vt 0.8749 0.7146
vt 0.8750 0.6981
vt 0.9272 0.6984
vt 0.9272 0.7149
vt 0.7273 0.8750
vt 0.7282 0.5124
vt 0.8321 0.5124
vt 0.8311 0.8750
vt 0.9274 0.5433
vt 0.9273 0.5582
vt 0.8750 0.5579
vt 0.8751 0.5430
vt 0.8331 0.5124
vt 0.8325 0.8750
vt 0.7258 0.8750
vt 0.7264 0.5124
vt 0.9271 0.8551
vt 0.8749 0.8548
vn 0.9760 0.2176 0.0000
vn 0.0000 -0.0000 1.0000
vn -0.9760 0.2176 0.0000
vn -0.0000 0.0000 -1.0000
vn 0.0000 -1.0000 0.0000
vn 0.0000 1.0000 0.0000
g Cube.201_Cube.273_Black
usemtl Black
s off
f 17/1/13 18/2/13 20/3/13 19/4/13
f 19/5/14 20/6/14 24/7/14 23/8/14
f 23/9/15 24/10/15 22/11/15 21/12/15
f 21/13/16 22/14/16 18/15/16 17/16/16
f 19/4/17 23/17/17 21/18/17 17/1/17
f 24/10/18 20/3/18 18/2/18 22/11/18
o Cylinder.054_Cylinder.057
v -0.920453 2.594822 0.059444
v -0.929287 2.594822 0.018023
v -0.924526 2.531781 0.059444
v -0.932511 2.531781 0.018023
v -0.378298 2.531781 0.059444
v -0.370313 2.531781 0.018023
v -0.387298 2.594822 0.059444
v -0.378464 2.594822 0.018023
v -0.423012 2.728111 0.059444
v -0.415362 2.732528 0.018023
v -0.520586 2.825685 0.059444
v -0.516169 2.833336 0.018023
v -0.653875 2.861400 0.059444
v -0.653875 2.870234 0.018023
v -0.787164 2.825685 0.059444
v -0.791581 2.833336 0.018023
v -0.884738 2.728111 0.059444
v -0.892389 2.732528 0.018023
v -0.831771 2.579493 0.018023
v -0.836472 2.526119 0.018023
v -0.467184 2.526119 0.018023
v -0.475504 2.579493 0.018023
v -0.499370 2.682114 0.018023
v -0.564571 2.757238 0.018023
v -0.653638 2.784735 0.018023
v -0.742705 2.757238 0.018023
v -0.807906 2.682114 0.018023
v -0.826630 2.579493 0.059444
v -0.831824 2.526119 0.059444
v -0.471831 2.526119 0.059444
v -0.480646 2.579493 0.059444
v -0.503822 2.679152 0.059444
v -0.567142 2.752107 0.059444
v -0.653638 2.778811 0.059444
v -0.740134 2.752108 0.059444
v -0.803453 2.679152 0.059444
v -0.924526 2.511302 0.048026
v -0.932511 2.508830 0.031472
v -0.378298 2.511302 0.048026
v -0.370313 2.508830 0.031472
v -0.836472 2.506687 0.031472
v -0.467184 2.506687 0.031472
v -0.831824 2.508780 0.048026
v -0.471831 2.508780 0.048026
vt 0.3800 0.5979
vt 0.3793 0.5965
vt 0.3704 0.6032
vt 0.3714 0.6042
vt 0.3947 0.6399
vt 0.3954 0.6414
vt 0.4043 0.6360
vt 0.4033 0.6347
vt 0.4123 0.6275
vt 0.4108 0.6267
vt 0.4152 0.6160
vt 0.4134 0.6160
vt 0.4120 0.6043
vt 0.4104 0.6051
vt 0.4033 0.5957
vt 0.4023 0.5972
vt 0.3913 0.5928
vt 0.3911 0.5944
vt 0.4086 0.6256
vt 0.4020 0.6327
vt 0.4100 0.6262
vt 0.4029 0.6338
vt 0.4020 0.5983
vt 0.3914 0.5958
vt 0.4097 0.6058
vt 0.4125 0.6161
vt 0.3941 0.6395
vt 0.3810 0.5990
vt 0.3718 0.6054
vt 0.4110 0.6161
vt 0.4011 0.5995
vt 0.3912 0.5971
vt 0.3815 0.6002
vt 0.3727 0.6062
vt 0.4083 0.6065
vt 0.3936 0.6382
vt 0.3714 0.6042
vt 0.3727 0.6062
vt 0.3704 0.6032
vt 0.3954 0.6414
vt 0.3947 0.6399
vt 0.3947 0.6399
vt 0.3954 0.6414
vt 0.3704 0.6032
vt 0.3714 0.6042
vt 0.3941 0.6395
vt 0.3936 0.6382
vt 0.3718 0.6054
vn -0.9784 0.0566 0.1986
vn 0.9714 0.1321 0.1972
vn 0.9461 0.2535 0.2018
vn 0.6926 0.6926 0.2018
vn 0.2535 0.9461 0.2018
vn -0.2535 0.9461 0.2018
vn -0.6926 0.6926 0.2018
vn -0.9461 0.2535 0.2018
vn -0.0000 -0.0000 1.0000
vn -0.9670 -0.2249 -0.1200
vn 0.0000 -0.0000 -1.0000
vn 0.7491 -0.6502 -0.1270
vn 0.9889 -0.0917 -0.1169
vn -0.7491 -0.6502 -0.1270
vn 0.9670 -0.2249 -0.1200
vn -0.2923 -0.9467 -0.1354
vn -0.9807 -0.1574 -0.1159
vn 0.2923 -0.9467 -0.1354
vn -0.0228 -0.5168 0.8558
vn -0.9642 0.0124 0.2650
vn 0.0242 -0.9890 0.1456
vn -0.0244 -0.9890 0.1457
vn 0.9642 0.0124 0.2650
vn -0.9874 -0.0087 -0.1580
vn -0.0218 -0.5357 -0.8441
vn 0.9874 -0.0087 -0.1580
vn 0.0226 -0.5168 0.8558
vn 0.0216 -0.5357 -0.8441
g Cylinder.054_Cylinder.057_Black
usemtl Black
s off
f 25/19/19 26/20/19 28/21/19 27/22/19
f 29/23/20 30/24/20 32/25/20 31/26/20
f 31/26/21 32/25/21 34/27/21 33/28/21
f 33/28/22 34/27/22 36/29/22 35/30/22
f 35/30/23 36/29/23 38/31/23 37/32/23
f 37/32/24 38/31/24 40/33/24 39/34/24
f 39/34/25 40/33/25 42/35/25 41/36/25
f 41/36/26 42/35/26 26/20/26 25/19/26
f 31/26/27 33/28/27 56/37/27 55/38/27
f 47/39/28 46/40/28 55/38/28 56/37/28
f 42/35/29 40/33/29 50/41/29 51/42/29
f 40/33/29 38/31/29 49/43/29 50/41/29
f 38/31/29 36/29/29 48/44/29 49/43/29
f 36/29/29 34/27/29 47/39/29 48/44/29
f 34/27/29 32/25/29 46/40/29 47/39/29
f 32/25/29 30/24/29 45/45/29 46/40/29
f 26/20/29 42/35/29 51/42/29 43/46/29
f 28/21/29 26/20/29 43/46/29 44/47/29
f 33/28/27 35/30/27 57/48/27 56/37/27
f 51/42/30 50/41/30 59/49/30 60/50/30
f 44/47/31 43/46/31 52/51/31 53/52/31
f 48/44/32 47/39/32 56/37/32 57/48/32
f 43/46/33 51/42/33 60/50/33 52/51/33
f 49/43/34 48/44/34 57/48/34 58/53/34
f 46/40/35 45/45/35 54/54/35 55/38/35
f 50/41/36 49/43/36 58/53/36 59/49/36
f 29/23/27 31/26/27 55/38/27 54/54/27
f 41/36/27 25/19/27 52/51/27 60/50/27
f 25/19/27 27/22/27 53/52/27 52/51/27
f 39/34/27 41/36/27 60/50/27 59/49/27
f 37/32/27 39/34/27 59/49/27 58/53/27
f 35/30/27 37/32/27 58/53/27 57/48/27
f 53/52/37 27/22/37 61/55/37 67/56/37
f 27/22/38 28/21/38 62/57/38 61/55/38
f 64/58/39 63/59/39 68/60/39 66/61/39
f 61/55/40 62/57/40 65/62/40 67/63/40
f 30/24/41 29/23/41 63/59/41 64/58/41
f 54/54/42 45/45/42 66/64/42 68/65/42
f 28/21/43 44/47/43 65/66/43 62/57/43
f 44/47/44 53/52/44 67/56/44 65/66/44
f 29/23/45 54/54/45 68/65/45 63/59/45
f 45/45/46 30/24/46 64/58/46 66/64/46
o Cylinder.053_Cylinder.056
v -0.397337 2.594822 -0.117933
v -0.388503 2.594822 -0.076512
v -0.393264 2.531781 -0.117933
v -0.385279 2.531781 -0.076512
v -0.939492 2.531781 -0.117933
v -0.947477 2.531781 -0.076512
v -0.930492 2.594822 -0.117933
v -0.939326 2.594822 -0.076512
v -0.894778 2.728111 -0.117933
v -0.902428 2.732528 -0.076512
v -0.797203 2.825685 -0.117933
v -0.801620 2.833336 -0.076512
v -0.663915 2.861400 -0.117933
v -0.663915 2.870234 -0.076512
v -0.530626 2.825685 -0.117933
v -0.526209 2.833336 -0.076512
v -0.433052 2.728111 -0.117933
v -0.425401 2.732528 -0.076512
v -0.486018 2.579493 -0.076512
v -0.481318 2.526119 -0.076512
v -0.850606 2.526119 -0.076512
v -0.842286 2.579493 -0.076512
v -0.818420 2.682114 -0.076512
v -0.753219 2.757238 -0.076512
v -0.664152 2.784735 -0.076512
v -0.575085 2.757238 -0.076512
v -0.509884 2.682114 -0.076512
v -0.491160 2.579493 -0.117933
v -0.485966 2.526119 -0.117933
v -0.845959 2.526119 -0.117933
v -0.837144 2.579493 -0.117933
v -0.813968 2.679152 -0.117933
v -0.750648 2.752107 -0.117933
v -0.664152 2.778811 -0.117933
v -0.577656 2.752108 -0.117933
v -0.514337 2.679152 -0.117933
v -0.393264 2.511302 -0.106515
v -0.385279 2.508830 -0.089960
v -0.939492 2.511302 -0.106515
v -0.947477 2.508830 -0.089960
v -0.481318 2.506687 -0.089960
v -0.850606 2.506687 -0.089960
v -0.485966 2.508780 -0.106515
v -0.845959 2.508780 -0.106515
vt 0.3800 0.5979
vt 0.3793 0.5965
vt 0.3704 0.6032
vt 0.3714 0.6042
vt 0.3947 0.6399
vt 0.3954 0.6414
vt 0.4043 0.6360
vt 0.4033 0.6347
vt 0.4123 0.6275
vt 0.4108 0.6267
vt 0.4152 0.6160
vt 0.4134 0.6160
vt 0.4120 0.6043
vt 0.4104 0.6051
vt 0.4033 0.5957
vt 0.4023 0.5972
vt 0.3913 0.5928
vt 0.3911 0.5944
vt 0.4086 0.6256
vt 0.4020 0.6327
vt 0.4100 0.6262
vt 0.4029 0.6338
vt 0.4020 0.5983
vt 0.3914 0.5958
vt 0.4097 0.6058
vt 0.4125 0.6161
vt 0.3941 0.6395
vt 0.3810 0.5990
vt 0.3718 0.6054
vt 0.4110 0.6161
vt 0.4011 0.5995
vt 0.3912 0.5971
vt 0.3815 0.6002
vt 0.3727 0.6062
vt 0.4083 0.6065
vt 0.3936 0.6382
vt 0.3714 0.6042
vt 0.3727 0.6062
vt 0.3704 0.6032
vt 0.3954 0.6414
vt 0.3947 0.6399
vt 0.3947 0.6399
vt 0.3954 0.6414
vt 0.3704 0.6032
vt 0.3714 0.6042
vt 0.3941 0.6395
vt 0.3936 0.6382
vt 0.3718 0.6054
vn 0.9784 0.0566 -0.1986
vn -0.9714 0.1321 -0.1972
vn -0.9461 0.2535 -0.2018
vn -0.6926 0.6926 -0.2018
vn -0.2535 0.9461 -0.2018
vn 0.2535 0.9461 -0.2018
vn 0.6926 0.6926 -0.2018
vn 0.9461 0.2535 -0.2018
vn 0.0000 -0.0000 -1.0000
vn 0.9670 -0.2249 0.1200
vn -0.0000 -0.0000 1.0000
vn -0.7491 -0.6502 0.1270
vn -0.9889 -0.0917 0.1169
vn 0.7491 -0.6502 0.1270
vn -0.9670 -0.2249 0.1200
vn 0.2923 -0.9467 0.1354
vn 0.9807 -0.1574 0.1159
vn -0.2923 -0.9467 0.1354
vn 0.0228 -0.5168 -0.8558
vn 0.9642 0.0124 -0.2650
vn -0.0242 -0.9890 -0.1456
vn 0.0244 -0.9890 -0.1457
vn -0.9642 0.0124 -0.2650
vn 0.9874 -0.0087 0.1580
vn 0.0218 -0.5357 0.8441
vn -0.9874 -0.0087 0.1580
vn -0.0226 -0.5168 -0.8558
vn -0.0216 -0.5357 0.8441
g Cylinder.053_Cylinder.056_Black
usemtl Black
s off
f 69/67/47 70/68/47 72/69/47 71/70/47
f 73/71/48 74/72/48 76/73/48 75/74/48
f 75/74/49 76/73/49 78/75/49 77/76/49
f 77/76/50 78/75/50 80/77/50 79/78/50
f 79/78/51 80/77/51 82/79/51 81/80/51
f 81/80/52 82/79/52 84/81/52 83/82/52
f 83/82/53 84/81/53 86/83/53 85/84/53
f 85/84/54 86/83/54 70/68/54 69/67/54
f 75/74/55 77/76/55 100/85/55 99/86/55
f 91/87/56 90/88/56 99/86/56 100/85/56
f 86/83/57 84/81/57 94/89/57 95/90/57
f 84/81/57 82/79/57 93/91/57 94/89/57
f 82/79/57 80/77/57 92/92/57 93/91/57
f 80/77/57 78/75/57 91/87/57 92/92/57
f 78/75/57 76/73/57 90/88/57 91/87/57
f 76/73/57 74/72/57 89/93/57 90/88/57
f 70/68/57 86/83/57 95/90/57 87/94/57
f 72/69/57 70/68/57 87/94/57 88/95/57
f 77/76/55 79/78/55 101/96/55 100/85/55
f 95/90/58 94/89/58 103/97/58 104/98/58
f 88/95/59 87/94/59 96/99/59 97/100/59
f 92/92/60 91/87/60 100/85/60 101/96/60
f 87/94/61 95/90/61 104/98/61 96/99/61
f 93/91/62 92/92/62 101/96/62 102/101/62
f 90/88/63 89/93/63 98/102/63 99/86/63
f 94/89/64 93/91/64 102/101/64 103/97/64
f 73/71/55 75/74/55 99/86/55 98/102/55
f 85/84/55 69/67/55 96/99/55 104/98/55
f 69/67/55 71/70/55 97/100/55 96/99/55
f 83/82/55 85/84/55 104/98/55 103/97/55
f 81/80/55 83/82/55 103/97/55 102/101/55
f 79/78/55 81/80/55 102/101/55 101/96/55
f 97/100/65 71/70/65 105/103/65 111/104/65
f 71/70/66 72/69/66 106/105/66 105/103/66
f 108/106/67 107/107/67 112/108/67 110/109/67
f 105/103/68 106/105/68 109/110/68 111/111/68
f 74/72/69 73/71/69 107/107/69 108/106/69
f 98/102/70 89/93/70 110/112/70 112/113/70
f 72/69/71 88/95/71 109/114/71 106/105/71
f 88/95/72 97/100/72 111/104/72 109/114/72
f 73/71/73 98/102/73 112/113/73 107/107/73
f 89/93/74 74/72/74 108/106/74 110/112/74
o Cube.200_Cube.272
v -1.301841 1.491717 -0.075233
v -1.086105 2.459478 -0.075233
v -1.301841 1.491717 -0.130952
v -1.086105 2.459478 -0.130952
v -0.005909 1.491717 -0.075233
v -0.221645 2.459478 -0.075233
v -0.005909 1.491717 -0.130952
v -0.221645 2.459478 -0.130952
vt 0.8749 0.7146
vt 0.8750 0.6981
vt 0.9272 0.6984
vt 0.9272 0.7149
vt 0.7273 0.8750
vt 0.7282 0.5124
vt 0.8321 0.5124
vt 0.8311 0.8750
vt 0.9274 0.5433
vt 0.9273 0.5582
vt 0.8750 0.5579
vt 0.8751 0.5430
vt 0.8331 0.5124
vt 0.8325 0.8750
vt 0.7258 0.8750
vt 0.7264 0.5124
vt 0.9271 0.8551
vt 0.8749 0.8548
vn -0.9760 0.2176 0.0000
vn 0.0000 0.0000 -1.0000
vn 0.9760 0.2176 0.0000
vn 0.0000 0.0000 1.0000
vn 0.0000 -1.0000 0.0000
vn 0.0000 1.0000 0.0000
g Cube.200_Cube.272_Black
usemtl Black
s off
f 113/115/75 114/116/75 116/117/75 115/118/75
f 115/119/76 116/120/76 120/121/76 119/122/76
f 119/123/77 120/124/77 118/125/77 117/126/77
f 117/127/78 118/128/78 114/129/78 113/130/78
f 115/118/79 119/131/79 117/132/79 113/115/79
f 120/124/80 116/117/80 114/116/80 118/125/80
o Cube.199_Cube.271
v -3.181006 0.011003 -0.472371
v 1.843528 0.011003 -0.472371
v -3.181006 0.011003 0.408833
v 1.843528 0.011003 0.408832
v 1.464141 0.011003 -0.472371
v 1.464141 0.011003 0.408832
v -2.751812 0.011003 -0.472371
v -2.751812 0.011003 0.408832
v -2.367425 4.511987 -0.472371
v -3.181006 3.344093 -0.472371
v 1.843528 3.349502 -0.472371
v 1.052598 4.511987 -0.472371
v -3.181006 3.344093 0.408833
v -2.367425 4.511987 0.408832
v 1.052598 4.511987 0.408832
v 1.843528 3.349502 0.408832
v 0.876573 4.136792 0.408832
v 1.464141 3.307845 0.408832
v 0.876573 4.136792 -0.472371
v 1.464141 3.307845 -0.472371
v -2.164325 4.136792 -0.472371
v -2.751812 3.302435 -0.472371
v -2.751812 3.302435 0.408832
v -2.164325 4.136793 0.408832
vt 0.0291 0.0408
vt 0.0343 0.0436
vt 0.0344 0.0264
vt 0.0293 0.0229
vt 0.0280 0.1778
vt 0.0333 0.1753
vt 0.0334 0.1598
vt 0.0282 0.1617
vt 0.1606 0.0231
vt 0.1588 0.0410
vt 0.1958 0.0645
vt 0.2129 0.0553
vt 0.2132 0.1454
vt 0.1959 0.1373
vt 0.1590 0.0440
vt 0.1607 0.0268
vt 0.1591 0.1612
vt 0.1592 0.1591
vt 0.1945 0.1362
vt 0.1943 0.0665
vt 0.1609 0.1773
vt 0.1609 0.1746
vt 0.2110 0.1439
vt 0.2107 0.0578
vn 0.0000 -1.0000 0.0000
vn -0.0000 0.0000 -1.0000
vn 1.0000 0.0000 0.0000
vn 0.0000 0.0000 1.0000
vn -1.0000 0.0000 0.0000
vn 0.8268 0.5625 0.0000
vn -0.8205 0.5716 0.0000
vn -0.8158 -0.5783 0.0000
vn 0.8176 -0.5757 0.0000
vn 0.0000 1.0000 0.0000
g Cube.199_Cube.271_OfficeDoors
usemtl OfficeDoors
s off
f 127/133/81 128/134/81 123/135/81 121/136/81
f 122/137/81 124/138/81 126/139/81 125/140/81
f 121/136/82 130/141/82 142/142/82 127/133/82
f 141/143/82 129/144/82 132/145/82 139/146/82
f 127/133/83 142/142/83 143/147/83 128/134/83
f 128/134/84 143/147/84 133/148/84 123/135/84
f 123/135/85 133/148/85 130/141/85 121/136/85
f 140/149/85 125/140/85 126/139/85 138/150/85
f 141/143/81 139/146/81 137/151/81 144/152/81
f 122/137/83 131/153/83 136/154/83 124/138/83
f 124/138/84 136/154/84 138/150/84 126/139/84
f 125/140/82 140/149/82 131/153/82 122/137/82
f 137/151/84 135/155/84 134/156/84 144/152/84
f 132/145/86 135/155/86 136/154/86 131/153/86
f 134/156/87 129/144/87 130/141/87 133/148/87
f 129/144/82 141/143/82 142/142/82 130/141/82
f 133/148/84 143/147/84 144/152/84 134/156/84
f 135/155/84 137/151/84 138/150/84 136/154/84
f 140/149/88 138/150/88 137/151/88 139/146/88
f 143/147/89 142/142/89 141/143/89 144/152/89
f 139/146/82 132/145/82 131/153/82 140/149/82
f 135/155/90 132/145/90 129/144/90 134/156/90
o Cube.198_Cube.270
v -2.766160 0.036303 -0.117270
v 1.472360 0.768869 0.044722
v 1.472360 0.036303 -0.117270
v 1.472360 0.768869 -0.105797
v -2.766160 0.036303 0.056196
v -2.766160 0.768869 -0.105797
v 1.472360 0.036303 0.056195
v -2.766160 0.768869 0.044722
v -2.190901 4.146807 -0.105797
v -2.766160 3.312029 -0.105797
v 0.897101 4.146807 -0.105797
v 1.472360 3.312029 -0.105797
v -2.190901 4.146807 0.044722
v -2.766160 3.312029 0.044722
v 0.897101 4.146807 0.044722
v 1.472360 3.312029 0.044722
v 1.472360 0.036303 -0.174383
v -2.766160 0.036303 -0.174383
v 1.472360 0.768869 0.113309
v -2.766160 0.768869 0.113309
v -2.766160 0.768869 -0.174383
v 1.472360 0.768869 -0.174383
v -2.766160 0.036303 0.113309
v 1.472360 0.036303 0.113309
vt 0.8831 0.8204
vt 0.8831 0.6296
vt 0.9114 0.6296
vt 0.9114 0.8204
vt 0.5786 0.4341
vt 0.5759 0.7540
vt 0.1505 0.7532
vt 0.1507 0.4341
vt 0.9167 0.5487
vt 0.9168 0.5958
vt 0.8918 0.5958
vt 0.8919 0.5487
vt 0.5786 0.4357
vt 0.5757 0.7543
vt 0.1511 0.7535
vt 0.1501 0.4358
vt 0.9222 0.8416
vt 0.8806 0.8416
vt 0.8806 0.5538
vt 0.9222 0.5538
vt 0.8905 0.7705
vt 0.8905 0.6233
vt 0.9132 0.6233
vt 0.9132 0.7705
vt 0.4638 0.9041
vt 0.2580 0.9047
vt 0.8905 0.5399
vt 0.9132 0.5399
vt 0.4635 0.9037
vt 0.2580 0.9043
vt 0.9168 0.8519
vt 0.8918 0.8519
vt 0.8918 0.7592
vt 0.9168 0.7592
vt 0.8918 0.8618
vt 0.9118 0.8618
vt 0.5853 0.3368
vt 0.1708 0.3368
vt 0.1708 0.3316
vt 0.5853 0.3316
vt 0.8737 0.8618
vt 0.8737 0.7705
vt 0.5853 0.2371
vt 0.1708 0.2371
vt 0.5599 0.2398
vt 0.5599 0.3305
vt 0.1755 0.3305
vt 0.1755 0.2398
vt 0.9359 0.5538
vt 0.9359 0.8416
vt 0.8668 0.8416
vt 0.8668 0.5538
vt 0.9273 0.7705
vt 0.9273 0.8618
vt 0.8778 0.5958
vt 0.8778 0.5487
vt 0.5599 0.3376
vt 0.1755 0.3376
vt 0.9321 0.5487
vt 0.9321 0.5958
vn 0.0000 1.0000 0.0000
vn 0.0000 0.0000 1.0000
vn -1.0000 -0.0000 0.0000
vn 0.0000 0.0000 -1.0000
vn 0.0000 -1.0000 0.0000
vn 1.0000 0.0000 0.0000
vn 0.8234 0.5674 0.0000
vn -0.8234 0.5674 0.0000
g Cube.198_Cube.270_OfficeDoors
usemtl OfficeDoors
s off
f 159/157/91 155/158/91 153/159/91 157/160/91
f 146/161/92 160/162/92 158/163/92 152/164/92
f 149/165/93 152/166/93 150/167/93 145/168/93
f 150/169/94 154/170/94 156/171/94 148/172/94
f 147/173/95 151/174/95 149/175/95 145/176/95
f 148/177/96 156/178/96 160/179/96 146/180/96
f 153/181/94 155/182/94 156/171/94 154/170/94
f 155/183/97 159/184/97 160/179/97 156/178/97
f 159/185/92 157/186/92 158/163/92 160/162/92
f 157/187/98 153/188/98 154/189/98 158/190/98
f 152/166/93 158/190/93 154/189/93 150/167/93
f 147/191/96 148/177/96 146/180/96 151/192/96
f 150/193/91 148/194/91 166/195/91 165/196/91
f 148/177/96 147/191/96 161/197/96 166/198/96
f 162/199/94 165/196/94 166/195/94 161/200/94
f 168/201/92 163/202/92 164/203/92 167/204/92
f 147/173/95 145/176/95 162/205/95 161/206/95
f 149/175/95 151/174/95 168/207/95 167/208/95
f 151/192/96 146/180/96 163/209/96 168/210/96
f 145/168/93 150/167/93 165/211/93 162/212/93
f 146/213/91 152/214/91 164/203/91 163/202/91
f 152/166/93 149/165/93 167/215/93 164/216/93
o Cube.197_Cube.269
v -2.121246 2.663332 0.148663
v -2.121246 4.137342 0.148663
v -2.121246 2.663332 -0.212309
v -2.121246 4.137342 -0.212309
v -1.794057 2.663332 0.148663
v -1.794057 4.137342 0.148663
v -1.794057 2.663332 -0.212309
v -1.794057 4.137342 -0.212309
vt 0.8749 0.7146
vt 0.8750 0.6981
vt 0.9272 0.6984
vt 0.9272 0.7149
vt 0.7273 0.8750
vt 0.7282 0.5124
vt 0.8321 0.5124
vt 0.8311 0.8750
vt 0.9274 0.5433
vt 0.9273 0.5582
vt 0.8750 0.5579
vt 0.8751 0.5430
vt 0.8331 0.5124
vt 0.8325 0.8750
vt 0.7258 0.8750
vt 0.7264 0.5124
vt 0.9271 0.8551
vt 0.8749 0.8548
vn -1.0000 0.0000 0.0000
vn 0.0000 0.0000 -1.0000
vn 1.0000 0.0000 0.0000
vn 0.0000 0.0000 1.0000
vn 0.0000 -1.0000 0.0000
vn 0.0000 1.0000 0.0000
g Cube.197_Cube.269_OfficeDoors
usemtl OfficeDoors
s off
f 169/217/99 170/218/99 172/219/99 171/220/99
f 171/221/100 172/222/100 176/223/100 175/224/100
f 175/225/101 176/226/101 174/227/101 173/228/101
f 173/229/102 174/230/102 170/231/102 169/232/102
f 171/220/103 175/233/103 173/234/103 169/217/103
f 176/226/104 172/219/104 170/218/104 174/227/104
o Cube.196_Cube.268
v 0.852773 4.137342 0.148663
v 0.852773 2.663332 0.148663
v 0.852773 4.137342 -0.212309
v 0.852773 2.663332 -0.212309
v 0.525584 4.137342 0.148663
v 0.525584 2.663332 0.148663
v 0.525584 4.137342 -0.212309
v 0.525584 2.663332 -0.212309
vt 0.8722 0.7188
vt 0.8723 0.7023
vt 0.9245 0.7027
vt 0.9245 0.7191
vt 0.7270 0.8767
vt 0.7279 0.5089
vt 0.8330 0.5089
vt 0.8321 0.8767
vt 0.9246 0.5475
vt 0.9246 0.5624
vt 0.8723 0.5621
vt 0.8724 0.5472
vt 0.8341 0.5089
vt 0.8334 0.8767
vt 0.7255 0.8767
vt 0.7261 0.5089
vt 0.9244 0.8593
vt 0.8722 0.8590
vn 1.0000 -0.0000 0.0000
vn 0.0000 0.0000 -1.0000
vn -1.0000 0.0000 0.0000
vn 0.0000 0.0000 1.0000
vn 0.0000 1.0000 0.0000
vn 0.0000 -1.0000 0.0000
g Cube.196_Cube.268_OfficeDoors
usemtl OfficeDoors
s off
f 177/235/105 178/236/105 180/237/105 179/238/105
f 179/239/106 180/240/106 184/241/106 183/242/106
f 183/243/107 184/244/107 182/245/107 181/246/107
f 181/247/108 182/248/108 178/249/108 177/250/108
f 179/238/109 183/251/109 181/252/109 177/235/109
f 184/244/110 180/237/110 178/236/110 182/245/110
