# Blender v2.78 (sub 0) OBJ File: 'RobotFactory.blend'
# www.blender.org
mtllib Sink.mtl
o Cube.195_Cube.267
v -0.020021 2.122019 0.918475
v -0.020021 4.122019 0.918475
v -0.020021 2.122019 -0.955901
v -0.020021 4.122019 -0.955901
v 0.084946 2.122019 0.918475
v 0.084946 4.122019 0.918475
v 0.084946 2.122019 -0.955901
v 0.084946 4.122019 -0.955901
vn -1.0000 0.0000 0.0000
vn 0.0000 0.0000 -1.0000
vn 1.0000 0.0000 0.0000
vn 0.0000 0.0000 1.0000
vn 0.0000 -1.0000 0.0000
vn 0.0000 1.0000 0.0000
g Cube.195_Cube.267_Cushion
usemtl Cushion
s off
f 1//1 2//1 4//1 3//1
f 3//2 4//2 8//2 7//2
f 7//3 8//3 6//3 5//3
f 5//4 6//4 2//4 1//4
f 3//5 7//5 5//5 1//5
f 8//6 4//6 2//6 6//6
o Cube.194_Cube.266
v 0.269974 1.734510 -0.418794
v 0.269974 1.876401 -0.418794
v 0.269974 1.734510 -0.276903
v 0.269974 1.876401 -0.276903
v 0.128082 1.734510 -0.418794
v 0.128082 1.876401 -0.418794
v 0.128082 1.734510 -0.276903
v 0.128082 1.876401 -0.276903
v 0.269974 1.963131 -0.418794
v 0.269974 1.963131 -0.276903
v 0.128082 1.963131 -0.276903
v 0.128082 1.963131 -0.418794
v 0.128082 1.876401 -0.612773
v 0.269974 1.876401 -0.612773
v 0.128082 1.963131 -0.612773
v 0.269974 1.963131 -0.612773
vn 1.0000 0.0000 0.0000
vn 0.0000 0.0000 1.0000
vn -1.0000 0.0000 0.0000
vn 0.0000 0.0000 -1.0000
vn 0.0000 -1.0000 0.0000
vn 0.0000 1.0000 0.0000
g Cube.194_Cube.266_Black
usemtl Black
s off
f 9//7 10//7 12//7 11//7
f 11//8 12//8 16//8 15//8
f 15//9 16//9 14//9 13//9
f 13//10 14//10 10//10 9//10
f 11//11 15//11 13//11 9//11
f 14//9 16//9 19//9 20//9
f 19//12 18//12 17//12 20//12
f 12//7 10//7 17//7 18//7
f 14//9 20//9 23//9 21//9
f 16//8 12//8 18//8 19//8
f 22//10 21//10 23//10 24//10
f 20//12 17//12 24//12 23//12
f 10//11 14//11 21//11 22//11
f 17//7 10//7 22//7 24//7
o Cube.193_Cube.265
v 0.128082 1.734510 0.431507
v 0.128082 1.876401 0.431507
v 0.128082 1.734510 0.289616
v 0.128082 1.876401 0.289616
v 0.269974 1.734510 0.431507
v 0.269974 1.876401 0.431507
v 0.269974 1.734510 0.289616
v 0.269974 1.876401 0.289616
v 0.128082 1.963131 0.431507
v 0.128082 1.963131 0.289616
v 0.269974 1.963131 0.289616
v 0.269974 1.963131 0.431507
v 0.269974 1.876401 0.625485
v 0.128082 1.876401 0.625485
v 0.269974 1.963131 0.625485
v 0.128082 1.963131 0.625485
vn -1.0000 0.0000 0.0000
vn 0.0000 0.0000 -1.0000
vn 1.0000 0.0000 0.0000
vn 0.0000 0.0000 1.0000
vn 0.0000 -1.0000 0.0000
vn 0.0000 1.0000 0.0000
g Cube.193_Cube.265_Black
usemtl Black
s off
f 25//13 26//13 28//13 27//13
f 27//14 28//14 32//14 31//14
f 31//15 32//15 30//15 29//15
f 29//16 30//16 26//16 25//16
f 27//17 31//17 29//17 25//17
f 30//15 32//15 35//15 36//15
f 35//18 34//18 33//18 36//18
f 28//13 26//13 33//13 34//13
f 30//15 36//15 39//15 37//15
f 32//14 28//14 34//14 35//14
f 38//16 37//16 39//16 40//16
f 36//18 33//18 40//18 39//18
f 26//17 30//17 37//17 38//17
f 33//13 26//13 38//13 40//13
o Cube.192_Cube.264
v 0.128082 1.734510 0.079478
v 0.128082 1.966978 0.079478
v 0.128082 1.734510 -0.062413
v 0.128082 1.966978 -0.062413
v 0.269974 1.734510 0.079478
v 0.269974 1.966978 0.079478
v 0.269974 1.734510 -0.062413
v 0.269974 1.966978 -0.062413
v 0.128082 2.068931 0.079478
v 0.128082 2.068931 -0.062413
v 0.269974 2.068931 -0.062413
v 0.269974 2.068931 0.079478
v 0.534703 1.966978 -0.062413
v 0.534703 1.966978 0.079478
v 0.534703 2.068931 -0.062413
v 0.534703 2.068931 0.079478
v 0.684640 1.966978 -0.062413
v 0.684640 1.966978 0.079478
v 0.684640 2.068931 -0.062413
v 0.684640 2.068931 0.079478
v 0.534703 1.912401 -0.062413
v 0.534703 1.912401 0.079478
v 0.684640 1.912401 -0.062413
v 0.684640 1.912401 0.079478
vn -1.0000 0.0000 0.0000
vn 0.0000 0.0000 -1.0000
vn 1.0000 0.0000 0.0000
vn 0.0000 0.0000 1.0000
vn 0.0000 -1.0000 0.0000
vn 0.0000 1.0000 0.0000
g Cube.192_Cube.264_Black
usemtl Black
s off
f 41//19 42//19 44//19 43//19
f 43//20 44//20 48//20 47//20
f 47//21 48//21 46//21 45//21
f 45//22 46//22 42//22 41//22
f 43//23 47//23 45//23 41//23
f 46//23 48//23 53//23 54//23
f 51//24 50//24 49//24 52//24
f 44//19 42//19 49//19 50//19
f 42//22 46//22 52//22 49//22
f 48//20 44//20 50//20 51//20
f 53//20 55//20 59//20 57//20
f 52//22 46//22 54//22 56//22
f 48//20 51//20 55//20 53//20
f 51//24 52//24 56//24 55//24
f 58//21 57//21 59//21 60//21
f 57//21 58//21 64//21 63//21
f 56//22 54//22 58//22 60//22
f 55//24 56//24 60//24 59//24
f 62//23 61//23 63//23 64//23
f 53//20 57//20 63//20 61//20
f 54//19 53//19 61//19 62//19
f 58//22 54//22 62//22 64//22
o Cylinder.052
v 0.603006 1.319708 -0.068765
v 0.603006 1.349567 -0.068765
v 0.688759 1.319708 -0.033245
v 0.688759 1.349567 -0.033245
v 0.724280 1.319708 0.052509
v 0.724280 1.349567 0.052509
v 0.688759 1.319708 0.138262
v 0.688759 1.349567 0.138262
v 0.603006 1.319708 0.173782
v 0.603006 1.349567 0.173782
v 0.517253 1.319708 0.138262
v 0.517253 1.349567 0.138262
v 0.481732 1.319708 0.052509
v 0.481732 1.349567 0.052509
v 0.517253 1.319708 -0.033245
v 0.517253 1.349567 -0.033245
vn 0.0000 -0.6302 -0.7764
vn 0.0000 0.6302 -0.7764
vn 0.5490 0.6302 -0.5490
vn 0.5490 -0.6302 -0.5490
vn 0.7764 0.6302 0.0000
vn 0.7764 -0.6302 0.0000
vn 0.5490 0.6302 0.5490
vn 0.5490 -0.6302 0.5490
vn 0.0000 0.6302 0.7764
vn 0.0000 -0.6302 0.7764
vn -0.5490 0.6302 0.5490
vn -0.5490 -0.6302 0.5490
vn -0.7764 0.6302 0.0000
vn -0.7764 -0.6302 0.0000
vn -0.5490 0.6302 -0.5490
vn -0.5490 -0.6302 -0.5490
g Cylinder.052_Cylinder.052_Black
usemtl Black
s 1
f 65//25 66//26 68//27 67//28
f 67//28 68//27 70//29 69//30
f 69//30 70//29 72//31 71//32
f 71//32 72//31 74//33 73//34
f 73//34 74//33 76//35 75//36
f 75//36 76//35 78//37 77//38
f 68//27 66//26 80//39 78//37 76//35 74//33 72//31 70//29
f 77//38 78//37 80//39 79//40
f 79//40 80//39 66//26 65//25
f 65//25 67//28 69//30 71//32 73//34 75//36 77//38 79//40
o Cylinder.051
v 0.603006 1.291157 -0.142524
v 0.603006 1.339176 -0.142524
v 0.740915 1.291157 -0.085400
v 0.740915 1.339176 -0.085400
v 0.798039 1.291157 0.052509
v 0.798039 1.339176 0.052509
v 0.740915 1.291157 0.190418
v 0.740915 1.339176 0.190418
v 0.603006 1.291157 0.247541
v 0.603006 1.339176 0.247541
v 0.465097 1.291157 0.190417
v 0.465097 1.339176 0.190417
v 0.407973 1.291157 0.052509
v 0.407973 1.339176 0.052509
v 0.465097 1.291157 -0.085400
v 0.465097 1.339176 -0.085400
vn 0.0000 -0.6302 -0.7764
vn 0.0000 0.6302 -0.7764
vn 0.5490 0.6302 -0.5490
vn 0.5490 -0.6302 -0.5490
vn 0.7764 0.6302 0.0000
vn 0.7764 -0.6302 0.0000
vn 0.5490 0.6302 0.5490
vn 0.5490 -0.6302 0.5490
vn 0.0000 0.6302 0.7764
vn 0.0000 -0.6302 0.7764
vn -0.5490 0.6302 0.5490
vn -0.5490 -0.6302 0.5490
vn -0.7764 0.6302 0.0000
vn -0.7764 -0.6302 0.0000
vn -0.5490 0.6302 -0.5490
vn -0.5490 -0.6302 -0.5490
g Cylinder.051_Cylinder.051_OfficeDoors
usemtl OfficeDoors
s 1
f 81//41 82//42 84//43 83//44
f 83//44 84//43 86//45 85//46
f 85//46 86//45 88//47 87//48
f 87//48 88//47 90//49 89//50
f 89//50 90//49 92//51 91//52
f 91//52 92//51 94//53 93//54
f 84//43 82//42 96//55 94//53 92//51 90//49 88//47 86//45
f 93//54 94//53 96//55 95//56
f 95//56 96//55 82//42 81//41
f 81//41 83//44 85//46 87//48 89//50 91//52 93//54 95//56
o Cylinder.050
v 0.470868 0.589919 -0.347403
v 0.470868 1.116051 -0.347403
v 0.698690 0.589919 -0.215871
v 0.698690 1.116051 -0.215871
v 0.698690 0.589919 0.047195
v 0.698690 1.116051 0.047195
v 0.470868 0.589919 0.178728
v 0.470868 1.116051 0.178728
v 0.243046 0.589919 0.047195
v 0.243046 1.116051 0.047195
v 0.243046 0.589919 -0.215870
v 0.243046 1.116051 -0.215870
v 0.319118 0.259911 -0.347403
v 0.433029 0.062612 -0.215871
v 0.433029 0.062612 0.047195
v 0.319118 0.259911 0.178728
v 0.205207 0.457211 0.047195
v 0.205207 0.457211 -0.215870
v 0.058511 0.147263 -0.347403
v 0.058511 -0.080559 -0.215871
v 0.058511 -0.080559 0.047195
v 0.058511 0.147263 0.178728
v 0.058511 0.375084 0.047195
v 0.058511 0.375084 -0.215870
v -0.135276 0.147263 -0.347403
v -0.135276 -0.080559 -0.215871
v -0.135276 -0.080559 0.047195
v -0.135276 0.147263 0.178728
v -0.135276 0.375084 0.047195
v -0.135276 0.375084 -0.215870
v 0.239446 0.512732 0.047195
v 0.460240 0.401892 0.178728
v 0.634456 0.309045 0.047195
v 0.634456 0.309045 -0.215871
v 0.239446 0.512732 -0.215870
v 0.460240 0.401892 -0.347403
vn 0.0183 -0.0179 -0.9997
vn 0.0000 0.6100 -0.7924
vn 0.6862 0.6100 -0.3962
vn 0.8744 -0.0884 -0.4770
vn 0.6862 0.6100 0.3962
vn 0.8744 -0.0884 0.4770
vn 0.0000 0.6100 0.7924
vn 0.0183 -0.0179 0.9997
vn -0.6862 0.6100 0.3962
vn -0.8640 0.0212 0.5029
vn -0.6862 0.6100 -0.3962
vn -0.8640 0.0212 -0.5029
vn 0.1250 -0.0655 0.9900
vn -0.7935 0.2644 0.5480
vn -0.5605 0.6294 0.5383
vn 0.0411 -0.0575 0.9975
vn -0.5605 0.6294 -0.5383
vn 0.0411 -0.0575 -0.9975
vn 0.0179 -0.0641 -0.9978
vn -0.2127 0.8159 -0.5376
vn 0.7988 -0.3884 -0.4593
vn 0.7988 -0.3884 0.4593
vn 0.5155 -0.7232 0.4595
vn 0.5155 -0.7232 -0.4595
vn -0.7935 0.2644 -0.5480
vn 0.1250 -0.0655 -0.9900
vn -0.2127 0.8159 0.5376
vn -0.6100 0.6862 -0.3962
vn -0.6100 0.6862 0.3962
vn 0.0179 -0.0641 0.9978
vn 0.1570 -0.8651 0.4764
vn 0.1570 -0.8651 -0.4764
vn -0.6100 0.0000 -0.7924
vn -0.6100 -0.6862 -0.3962
vn -0.6100 -0.6862 0.3962
vn -0.6100 0.0000 0.7924
g Cylinder.050_Cylinder.050_None
usemtl None
s 1
f 97//57 98//58 100//59 99//60
f 99//60 100//59 102//61 101//62
f 101//62 102//61 104//63 103//64
f 103//64 104//63 106//65 105//66
f 100//59 98//58 108//67 106//65 104//63 102//61
f 105//66 106//65 108//67 107//68
f 107//68 108//67 98//58 97//57
f 128//69 127//70 113//71 112//72
f 114//73 109//74 115//75 120//76
f 130//77 129//78 111//79 110//80
f 127//70 131//81 114//73 113//71
f 132//82 130//77 110//80 109//74
f 129//78 128//69 112//72 111//79
f 131//81 132//82 109//74 114//73
f 119//83 120//76 126//84 125//85
f 112//72 113//71 119//83 118//86
f 110//80 111//79 117//87 116//88
f 113//71 114//73 120//76 119//83
f 111//79 112//72 118//86 117//87
f 109//74 110//80 116//88 115//75
f 121//89 122//90 123//91 124//92 125//85 126//84
f 117//87 118//86 124//92 123//91
f 115//75 116//88 122//90 121//89
f 120//76 115//75 121//89 126//84
f 118//86 119//83 125//85 124//92
f 116//88 117//87 123//91 122//90
f 107//68 97//57 132//82 131//81
f 101//62 103//64 128//69 129//78
f 97//57 99//60 130//77 132//82
f 105//66 107//68 131//81 127//70
f 99//60 101//62 129//78 130//77
f 103//64 105//66 127//70 128//69
o Cube.191_Cube.263
v 0.139683 0.980339 0.682391
v 0.139683 1.043629 0.773317
v 0.031370 1.043629 0.682391
v 0.139683 1.718638 0.773317
v 0.139683 1.781927 0.682391
v 0.031370 1.718638 0.682391
v 0.139683 0.980339 -0.693632
v 0.031370 1.043629 -0.693632
v 0.139683 1.043629 -0.784558
v 0.139683 1.781927 -0.693632
v 0.139683 1.718638 -0.784558
v 0.031370 1.718638 -0.693632
v 1.174313 0.980339 0.682391
v 1.282626 1.043629 0.682391
v 1.174313 1.043629 0.773317
v 1.174313 1.781927 0.682391
v 1.174313 1.718638 0.773317
v 1.282626 1.718638 0.682391
v 1.174313 0.980339 -0.693632
v 1.174313 1.043629 -0.784558
v 1.282626 1.043629 -0.693632
v 1.174313 1.781927 -0.693632
v 1.282626 1.718638 -0.693632
v 1.174313 1.718638 -0.784558
v 0.318552 1.781927 0.595355
v 0.318552 1.781927 -0.606596
v 1.108871 1.781927 -0.606596
v 1.108871 1.781927 0.595355
v 0.318552 1.323387 0.595355
v 0.318552 1.323387 -0.606596
v 1.108871 1.323387 -0.606596
v 1.108871 1.323387 0.595355
vn 0.2966 -0.4177 0.8587
vn 0.2966 0.4177 0.8587
vn -0.2966 0.4177 0.8587
vn -0.2966 -0.4177 0.8587
vn 0.8237 -0.4370 -0.3612
vn 0.8237 0.4370 -0.3612
vn 0.8237 0.4370 0.3612
vn 0.8237 -0.4370 0.3612
vn -0.2421 0.9290 -0.2800
vn -0.2421 0.9290 0.2800
vn 0.3015 0.9045 -0.3015
vn 0.3015 0.9045 0.3015
vn -0.8237 -0.4370 0.3612
vn -0.8237 0.4370 0.3612
vn -0.8237 0.4370 -0.3612
vn -0.8237 -0.4370 -0.3612
vn -0.2966 -0.4177 -0.8587
vn -0.2966 0.4177 -0.8587
vn 0.2966 0.4177 -0.8587
vn 0.2966 -0.4177 -0.8587
vn -0.2421 -0.9290 0.2800
vn -0.2421 -0.9290 -0.2800
vn 0.2421 -0.9290 0.2800
vn 0.2421 0.9290 0.2800
vn 0.2421 -0.9290 -0.2800
vn 0.2421 0.9290 -0.2800
vn -0.3015 0.9045 -0.3015
vn -0.3015 0.9045 0.3015
vn -0.5773 0.5773 0.5773
vn -0.5773 0.5773 -0.5773
vn 0.5773 0.5773 0.5773
vn 0.5773 0.5773 -0.5773
g Cube.191_Cube.263_Compy
usemtl Compy
s 1
f 147//93 149//94 136//95 134//96
f 153//97 155//98 150//99 146//100
f 142//101 137//102 157//103 158//104
f 135//105 138//106 144//107 140//108
f 141//109 143//110 156//111 152//112
f 133//113 134//96 135//105
f 136//95 137//102 138//106
f 139//114 140//108 141//109
f 142//101 143//110 144//107
f 145//115 146//100 147//93
f 148//116 149//94 150//99
f 151//117 152//112 153//97
f 154//118 155//98 156//111
f 139//114 133//113 135//105 140//108
f 134//96 136//95 138//106 135//105
f 137//102 142//101 144//107 138//106
f 143//110 141//109 140//108 144//107
f 151//117 139//114 141//109 152//112
f 142//101 154//118 156//111 143//110
f 155//98 153//97 152//112 156//111
f 145//115 151//117 153//97 146//100
f 154//118 148//116 150//99 155//98
f 149//94 147//93 146//100 150//99
f 133//113 145//115 147//93 134//96
f 148//116 137//102 136//95 149//94
f 139//114 151//117 145//115 133//113
f 137//102 148//116 160//119 157//103
f 148//116 154//118 159//120 160//119
f 154//118 142//101 158//104 159//120
g Cube.191_Cube.263_Roomba01
usemtl Roomba01
f 160//119 159//120 163//121 164//122
f 163//121 162//123 161//124 164//122
f 158//104 157//103 161//124 162//123
f 157//103 160//119 164//122 161//124
f 159//120 158//104 162//123 163//121
