# Blender v2.78 (sub 0) OBJ File: 'RobotFactory.blend'
# www.blender.org
mtllib TV.mtl
o Cube.157_Cube.231
v -2.263914 2.202007 -0.190944
v -2.263914 5.271495 -0.190944
v 2.274161 2.202007 -0.190945
v 2.274161 5.271495 -0.190945
v -2.263914 2.202007 0.049398
v -2.263914 5.271495 0.049398
v 2.274161 2.202007 0.049397
v 2.274161 5.271495 0.049398
v 2.059402 2.369995 -0.190945
v -2.049154 2.369995 -0.190945
v -2.049154 5.103507 -0.190944
v 2.059402 5.103507 -0.190945
v 2.059402 2.369995 -0.128287
v -2.049154 2.369995 -0.128287
v -2.049154 5.103507 -0.128286
v 2.059402 5.103507 -0.128287
vt 0.3941 0.9805
vt 0.0484 0.9811
vt 0.0650 0.9688
vt 0.3789 0.9697
vt 0.0484 0.7323
vt 0.0172 0.9807
vt 0.0172 0.7319
vt 0.0484 0.7001
vt 0.0484 0.4531
vt 0.3941 0.4525
vt 0.3941 0.6995
vt 0.4230 0.7325
vt 0.4230 0.9813
vt 0.3941 0.7317
vt 0.0484 0.4209
vt 0.3941 0.4203
vt 0.3789 0.7456
vt 0.3723 0.9612
vt 0.3704 0.7550
vt 0.0643 0.7447
vt 0.0754 0.9617
vt 0.0759 0.7539
vt 0.7444 0.7721
vt 0.7444 0.9849
vt 0.4356 0.9849
vt 0.4356 0.7721
vn -0.0000 0.0000 -1.0000
vn 1.0000 -0.0000 0.0000
vn 0.0000 -0.0000 1.0000
vn -1.0000 0.0000 0.0000
vn 0.0000 -1.0000 0.0000
vn 0.0000 1.0000 0.0000
g Cube.157_Cube.231_Compy
usemtl Compy
s off
f 2/1/1 4/2/1 12/3/1 11/4/1
f 3/5/2 4/2/2 8/6/2 7/7/2
f 7/8/3 8/9/3 6/10/3 5/11/3
f 5/12/4 6/13/4 2/1/4 1/14/4
f 3/5/5 7/8/5 5/11/5 1/14/5
f 8/9/6 4/15/6 2/16/6 6/10/6
f 10/17/2 11/4/2 15/18/2 14/19/2
f 3/5/1 1/14/1 10/17/1 9/20/1
f 4/2/1 3/5/1 9/20/1 12/3/1
f 1/14/1 2/1/1 11/4/1 10/17/1
f 11/4/5 12/3/5 16/21/5 15/18/5
f 9/20/6 10/17/6 14/19/6 13/22/6
f 12/3/4 9/20/4 13/22/4 16/21/4
g Cube.157_Cube.231_FaceEmission
usemtl FaceEmission
f 14/23/1 15/24/1 16/25/1 13/26/1
